<svg id="Layer_5" data-name="Layer 5" xmlns="http://www.w3.org/2000/svg" viewBox="0 0 175.8 198.23"><defs><style>.cls-1{fill:#fff;}.cls-2{fill:#e71a23;}.cls-3{fill:#231f20;}</style></defs><g id="contorno_Hormiga" data-name="contorno Hormiga"><path class="cls-1" d="M270.17,238.55c-6.48,0-28.8-1.75-43.9-24.32a51.4,51.4,0,0,1-8-23.39c-3.5-2-11.86-8.51-12-24a35.07,35.07,0,0,1,7.5-21.85c.79-2.66,4.44-14.08,10.68-21.09A66.37,66.37,0,0,0,192.41,112c-8.72-.78-13.68-4.69-16.3-7.83a17.59,17.59,0,0,1-4.3-12.27c.51-5.5,5-14.72,29.64-14.72l2.16,0h.17c2.23.2,22.09,2.3,32.57,13.49,7.17,7.43,10.55,12.71,12,15.44,2.81-.76,5.73-1.51,7.61-1.9.79-3.93,1.42-17.12-1.34-23.84-1.78-4.32-5.42-15.35-.91-24.34,2.53-5,7.15-8.47,13.73-10.16a15.36,15.36,0,0,1,3.8-.49h.13c.61,0,1.22-.07,1.81-.07a15,15,0,0,1,12.26,5.56c6.23,7.68,5.22,20.84,4.37,24.85-1.08,5.13-4.08,20.37-5.26,26.38a85.14,85.14,0,0,1,29.77,12.75c14.47,10,31.05,29.31,27.83,64.65-3.3,36.29-37,56.35-59,56.35h0a28.19,28.19,0,0,1-5.44-.5h0a13.59,13.59,0,0,0-1.87-.14,5.74,5.74,0,0,0-1.64.19l.77,2.82-3,.25C271.93,238.5,271.29,238.55,270.17,238.55Z" transform="translate(-169.27 -42.83)"/><path class="cls-2" d="M273.18,47.83c16.28,0,15.42,21.59,14.2,27.39-1.38,6.51-5.75,28.9-5.75,28.9s64.06,9.1,58,75.17c-3.24,35.64-36.85,54.08-56.49,54.08a25.58,25.58,0,0,1-4.95-.45,15.25,15.25,0,0,0-2.36-.19c-2.13,0-4.82.52-4.07,3.27,0,0-.58.05-1.63.05-6,0-27.36-1.6-41.83-23.21a48.22,48.22,0,0,1-7.63-23.56s-11.78-4.73-11.89-22.49a32.35,32.35,0,0,1,7.25-20.63s4.38-15.76,12.21-22.53a66.92,66.92,0,0,0-35.65-14.13c-14.48-1.29-18.82-12-18.33-17.38.47-5.11,5.11-12.45,27.15-12.45l2.11,0c5.68.52,22.19,3.34,31,12.71C244.94,103.19,247,109.09,247,109.09s9.49-2.62,10.71-2.61h0c1.16,0,2.88-18.12-.79-27S250,53,268.07,48.32a12.54,12.54,0,0,1,3.18-.42h.22c.59,0,1.16-.07,1.71-.07m0-5c-.61,0-1.24,0-1.88.07h-.05a17.86,17.86,0,0,0-4.41.57c-7.32,1.88-12.49,5.73-15.36,11.46-5,9.91-1.07,21.77.84,26.41,2.25,5.49,2,16,1.44,20.82-1.06.25-2.42.59-4.18,1.06A83.36,83.36,0,0,0,238.15,89C227,77.12,206.33,74.92,204,74.71h-.35l-2.21,0c-26.6,0-31.54,10.65-32.13,17a20.13,20.13,0,0,0,4.87,14.1c2.92,3.51,8.42,7.86,18,8.72a64.19,64.19,0,0,1,28.66,9.91c-5.22,7-8.3,16.13-9.29,19.39a37.88,37.88,0,0,0-7.74,23c.1,15.24,7.73,22.54,12.09,25.47a54.35,54.35,0,0,0,8.24,23.27l0,0,0,0c15.79,23.6,39.19,25.43,46,25.43,1.19,0,1.91-.05,2-.06l6-.5-.71-2.62a31.06,31.06,0,0,0,5.69.5c11.82,0,26.2-5.66,37.53-14.78,9.82-7.9,22-21.93,23.94-43.84,3.33-36.54-13.88-56.57-28.9-66.94a87.89,87.89,0,0,0-28.27-12.58c1.37-7,3.83-19.44,4.79-24s2-18.45-4.88-26.94a17.63,17.63,0,0,0-14.21-6.48Z" transform="translate(-169.27 -42.83)"/></g><path class="cls-2" d="M294.19,190.5s-1.85,10.48-9.68,16.07-19.31,12.26-20.23,17.5c0,0-18-3.81-25.93-17.61s-6.25-24.27-6.25-24.27a35.5,35.5,0,0,1-8-21.63c-.26-9.15,1.67-21.26,20.69-34.68a49,49,0,0,0-23.61-20.58,93.07,93.07,0,0,0-29.86-6.91s-4.26-.09-4.88-3.17,6.22-3.79,15.07-3.44,32.93,6.46,44.83,33.28a69,69,0,0,1,8.8-4,99.44,99.44,0,0,1,10.47-2.8c2.21-7.17,4.36-17,3.56-26.66-1.5-18.27-6.75-27.58.86-29.3s5.51,17.67,4.48,26.85a171.41,171.41,0,0,1-6.39,29.34s8-2.1,20.82,1.46c35.78,10,41.84,49.16,35.22,66.88-7.13,19.08-24.31,33-44.45,35.23-3.77.42-3.84-1.31.82-4.59C295.43,207,294.69,192,294.19,190.5Z" transform="translate(-169.27 -42.83)"/><path class="cls-1" d="M297.38,160.52c-.22,10.67-8.38,19.16-18.23,19s-17.66-9-17.44-19.67,8.37-19.16,18.22-19S297.59,149.86,297.38,160.52Z" transform="translate(-169.27 -42.83)"/><path class="cls-1" d="M244.88,168c1.18,7.7-3.26,14.77-9.92,15.79s-13-4.39-14.19-12.09S224,157,230.69,155.93,243.7,160.33,244.88,168Z" transform="translate(-169.27 -42.83)"/><path class="cls-3" d="M293,163.11c-.12,5.88-4.68,10.56-10.18,10.45s-9.87-5-9.75-10.86,4.68-10.56,10.18-10.46S293.07,157.22,293,163.11Z" transform="translate(-169.27 -42.83)"/><path class="cls-1" d="M292.16,153.48a3.59,3.59,0,1,1-3.5-3.91A3.71,3.71,0,0,1,292.16,153.48Z" transform="translate(-169.27 -42.83)"/><path class="cls-1" d="M286.16,163a3.19,3.19,0,1,1-3.11-3.47A3.29,3.29,0,0,1,286.16,163Z" transform="translate(-169.27 -42.83)"/><path class="cls-3" d="M227.57,170.21c-.1,5,3.59,9.12,8.25,9.22s8.51-3.88,8.61-8.88-3.59-9.13-8.25-9.22S227.67,165.21,227.57,170.21Z" transform="translate(-169.27 -42.83)"/><path class="cls-1" d="M228.56,162.06a3,3,0,1,0,3.1-3.19A3.16,3.16,0,0,0,228.56,162.06Z" transform="translate(-169.27 -42.83)"/><path class="cls-1" d="M234,170.34a2.06,2.06,0,1,0,2.09-2.16A2.12,2.12,0,0,0,234,170.34Z" transform="translate(-169.27 -42.83)"/></svg>