<svg id="Layer_5" data-name="Layer 5" xmlns="http://www.w3.org/2000/svg" viewBox="0 0 689.1 377.33"><defs><style>.cls-1,.cls-4{fill:#fff;}.cls-2,.cls-6{fill:#e71a23;}.cls-3{opacity:0.3;}.cls-4,.cls-6{fill-rule:evenodd;}.cls-5{fill:#231f20;}</style></defs><circle class="cls-1" cx="410.06" cy="272.9" r="182.27" transform="translate(-135.26 283.58) rotate(-45)"/><path d="M410.06,455.67c-100.78,0-182.77-82-182.77-182.77s82-182.78,182.77-182.78,182.77,82,182.77,182.78S510.84,455.67,410.06,455.67Zm0-364.55c-100.23,0-181.77,81.55-181.77,181.78s81.54,181.77,181.77,181.77S591.83,373.13,591.83,272.9,510.29,91.12,410.06,91.12Z" transform="translate(-62.4 -86.31)"/><path class="cls-2" d="M412.44,97.93A177.07,177.07,0,1,1,235.4,275a177,177,0,0,1,177-177m0-11.62a190.27,190.27,0,0,0-38,3.83A187.65,187.65,0,0,0,307,118.54a189,189,0,0,0-68.34,83,187.94,187.94,0,0,0-11,35.44,189.8,189.8,0,0,0,3.89,91.6,187.71,187.71,0,0,0,21.69,47.61,189.48,189.48,0,0,0,76.4,68.34,187.19,187.19,0,0,0,39.67,14.15,190.17,190.17,0,0,0,81.46,1.08A187.81,187.81,0,0,0,518.59,431a189.21,189.21,0,0,0,67.89-83,188.39,188.39,0,0,0-17.6-178.45,189.57,189.57,0,0,0-51-50.94,187.65,187.65,0,0,0-67.48-28.4,190.27,190.27,0,0,0-38-3.83Z" transform="translate(-62.4 -86.31)"/><path class="cls-2" d="M412.44,397.91a123,123,0,1,1,68.82-225,123.3,123.3,0,0,1,33.17,33.18A123,123,0,0,1,499.91,361.4a122.73,122.73,0,0,1-87.47,36.51Z" transform="translate(-62.4 -86.31)"/><g id="Fresas_y_elote" data-name="Fresas y elote"><g class="cls-3"><path class="cls-4" d="M389.87,210.43c-1.05-.26-2.11-.49-3.15-.8-5.8-1.71-9-5.72-10-11.58-1-6.12.33-12,2.38-17.68,2.51-7,6-13.35,11.65-18.29,6-5.19,11.71-5.59,18.43-1.41l1.53,1c-1.22-5-.73-9.09,1.55-13.13,3.17,1.61,8.3,6.5,7.83,11.28,3.29-2.72,7.13-3.65,11.3-4.35-.76,4.14-1.61,8.06-4.42,11.38,5.63.18,8.51,4,11.58,8.16-4.36,1.62-8.43,3.3-13.16,1.32.61,1.06,1.14,1.92,1.6,2.8,3.13,5.91,2.63,11.18-1.66,16.33-5.19,6.24-12,10-19.57,12.56-3.22,1.09-6.62,1.65-9.93,2.45ZM393,205.7l.1.34c3.67-.83,7.42-1.37,11-2.54,6.63-2.19,12.69-5.47,17.42-10.78,3.3-3.7,3.85-7.16,1.26-11.28a57.48,57.48,0,0,0-6.39-8.2,45.12,45.12,0,0,0-11-9.28c-3.55-2-7-1.88-10.26.73a33.29,33.29,0,0,0-8.51,10.82c-3.16,6-5.34,12.32-5.24,19.2.09,6.1,2.51,9.34,7.7,10.49C390.26,205.49,391.62,205.54,393,205.7Z" transform="translate(-62.4 -86.31)"/><path class="cls-4" d="M407.44,174.6A2.47,2.47,0,0,1,405,177a2.38,2.38,0,1,1,.06-4.75A2.46,2.46,0,0,1,407.44,174.6Z" transform="translate(-62.4 -86.31)"/><path class="cls-4" d="M414.62,181.82a2.48,2.48,0,0,1-2.45,2.31,2.39,2.39,0,0,1,.14-4.77A2.52,2.52,0,0,1,414.62,181.82Z" transform="translate(-62.4 -86.31)"/><path class="cls-4" d="M388.34,196a2.32,2.32,0,0,1,2.43-2.26,2.38,2.38,0,1,1-.23,4.75A2.33,2.33,0,0,1,388.34,196Z" transform="translate(-62.4 -86.31)"/><path class="cls-4" d="M405.05,184.17a2.46,2.46,0,0,1-2.4,2.35,2.38,2.38,0,1,1,.06-4.76A2.47,2.47,0,0,1,405.05,184.17Z" transform="translate(-62.4 -86.31)"/><path class="cls-4" d="M393.05,184.15a2.45,2.45,0,0,1,2.44,2.3,2.48,2.48,0,0,1-2.44,2.46,2.38,2.38,0,0,1,0-4.76Z" transform="translate(-62.4 -86.31)"/><path class="cls-4" d="M412.23,191.29a2.49,2.49,0,0,1-2.35,2.41,2.39,2.39,0,0,1-.2-4.78A2.51,2.51,0,0,1,412.23,191.29Z" transform="translate(-62.4 -86.31)"/><path class="cls-4" d="M400.33,196.08a2.38,2.38,0,1,1-.08-4.76,2.48,2.48,0,0,1,2.41,2.35A2.45,2.45,0,0,1,400.33,196.08Z" transform="translate(-62.4 -86.31)"/><path class="cls-4" d="M395.42,179.35a2.39,2.39,0,0,1,.17-4.77,2.39,2.39,0,0,1-.17,4.77Z" transform="translate(-62.4 -86.31)"/></g><g class="cls-3"><path class="cls-4" d="M333.56,251.07c-1.16,0-2.32.13-3.49.13-6.52,0-11.06-3.18-13.84-8.95-2.9-6-3.29-12.47-2.89-19,.48-8,2.12-15.61,6.49-22.43,4.6-7.18,10.4-9.33,18.61-7.05l1.87.53c-2.79-4.82-3.51-9.17-2.37-14,3.75.71,10.54,4.2,11.5,9.29,2.58-3.82,6.27-5.94,10.36-7.93.47,4.51.78,8.82-1.12,13.1,5.88-1.52,10,1.59,14.44,4.91-4,3-7.71,6-13.2,5.37,1,.91,1.76,1.63,2.51,2.4,5,5.16,6.1,10.76,3.23,17.38-3.47,8-9.4,14-16.41,18.91-3,2.1-6.33,3.71-9.51,5.55Zm1.75-5.83.21.33c3.54-2,7.25-3.67,10.57-6,6.18-4.26,11.44-9.49,14.73-16.42,2.28-4.82,1.81-8.56-2.12-12a62.57,62.57,0,0,0-9.1-6.53,48.44,48.44,0,0,0-14.21-6.25c-4.28-1-7.78.18-10.38,3.88A35.54,35.54,0,0,0,319.5,216c-1.44,7.17-1.79,14.34.4,21.42,1.94,6.28,5.43,8.89,11.14,8.51C332.47,245.84,333.89,245.48,335.31,245.24Z" transform="translate(-62.4 -86.31)"/><path class="cls-4" d="M340.86,208.72a2.68,2.68,0,0,1-1.77,3.16,2.56,2.56,0,0,1-1.38-4.94A2.66,2.66,0,0,1,340.86,208.72Z" transform="translate(-62.4 -86.31)"/><path class="cls-4" d="M350.46,214a2.65,2.65,0,0,1-1.82,3.12,2.57,2.57,0,1,1-1.31-5A2.7,2.7,0,0,1,350.46,214Z" transform="translate(-62.4 -86.31)"/><path class="cls-4" d="M327.6,236.59a2.52,2.52,0,0,1,1.83-3.08,2.57,2.57,0,1,1,1.2,5A2.52,2.52,0,0,1,327.6,236.59Z" transform="translate(-62.4 -86.31)"/><path class="cls-4" d="M341.29,219.33a2.64,2.64,0,0,1-1.77,3.15,2.56,2.56,0,0,1-1.38-4.94A2.67,2.67,0,0,1,341.29,219.33Z" transform="translate(-62.4 -86.31)"/><path class="cls-4" d="M328.88,222.94a2.57,2.57,0,1,1,1.44,4.93,2.57,2.57,0,0,1-1.44-4.93Z" transform="translate(-62.4 -86.31)"/><path class="cls-4" d="M350.87,224.51a2.68,2.68,0,0,1-1.7,3.2,2.54,2.54,0,0,1-3.19-1.64,2.5,2.5,0,0,1,1.53-3.23A2.7,2.7,0,0,1,350.87,224.51Z" transform="translate(-62.4 -86.31)"/><path class="cls-4" d="M340,233.07a2.57,2.57,0,1,1-1.52-4.9,2.57,2.57,0,0,1,1.52,4.9Z" transform="translate(-62.4 -86.31)"/><path class="cls-4" d="M329.88,217.27a2.57,2.57,0,0,1-1.27-5,2.57,2.57,0,0,1,1.27,5Z" transform="translate(-62.4 -86.31)"/></g><g class="cls-3"><path class="cls-4" d="M479.26,379.76c-1.16.12-2.31.28-3.47.35-6.51.41-11.24-2.46-14.39-8-3.28-5.82-4.08-12.24-4.1-18.77,0-8,1.11-15.71,5-22.8,4.13-7.46,9.78-10,18.12-8.22l1.9.4c-3.09-4.62-4.09-8.92-3.27-13.85,3.79.46,10.79,3.51,12.07,8.52,2.33-4,5.88-6.32,9.83-8.57.76,4.48,1.35,8.75-.27,13.15,5.76-1.89,10.1.94,14.72,4-3.81,3.26-7.31,6.45-12.82,6.2,1,.84,1.85,1.51,2.65,2.23,5.35,4.83,6.78,10.35,4.34,17.14-2.95,8.23-8.48,14.56-15.17,19.93-2.85,2.29-6.08,4.11-9.13,6.14Zm1.37-5.93.24.31c3.4-2.18,7-4.12,10.16-6.61,5.9-4.66,10.81-10.21,13.64-17.33,2-5,1.26-8.66-2.88-11.88a62,62,0,0,0-9.5-5.94,48.46,48.46,0,0,0-14.58-5.32c-4.34-.71-7.76.67-10.11,4.53A35.45,35.45,0,0,0,463,345.68c-1,7.24-.86,14.42,1.77,21.35,2.34,6.14,6,8.52,11.67,7.77A38.82,38.82,0,0,0,480.63,373.83Z" transform="translate(-62.4 -86.31)"/><path class="cls-4" d="M483.83,337a2.67,2.67,0,0,1-1.56,3.26,2.56,2.56,0,0,1-1.7-4.83A2.67,2.67,0,0,1,483.83,337Z" transform="translate(-62.4 -86.31)"/><path class="cls-4" d="M493.75,341.68a2.66,2.66,0,0,1-1.62,3.24,2.57,2.57,0,0,1-1.62-4.88A2.72,2.72,0,0,1,493.75,341.68Z" transform="translate(-62.4 -86.31)"/><path class="cls-4" d="M472.38,365.69A2.52,2.52,0,0,1,474,362.5a2.57,2.57,0,1,1,1.52,4.91A2.52,2.52,0,0,1,472.38,365.69Z" transform="translate(-62.4 -86.31)"/><path class="cls-4" d="M484.94,347.59a2.64,2.64,0,0,1-1.57,3.26,2.56,2.56,0,0,1-1.69-4.84A2.68,2.68,0,0,1,484.94,347.59Z" transform="translate(-62.4 -86.31)"/><path class="cls-4" d="M472.78,352a2.57,2.57,0,1,1,1.76,4.82,2.57,2.57,0,0,1-1.76-4.82Z" transform="translate(-62.4 -86.31)"/><path class="cls-4" d="M494.83,352.15a2.68,2.68,0,0,1-1.49,3.3,2.53,2.53,0,0,1-3.29-1.44,2.51,2.51,0,0,1,1.32-3.32A2.71,2.71,0,0,1,494.83,352.15Z" transform="translate(-62.4 -86.31)"/><path class="cls-4" d="M484.55,361.38a2.56,2.56,0,1,1-1.83-4.79,2.67,2.67,0,0,1,3.3,1.49A2.64,2.64,0,0,1,484.55,361.38Z" transform="translate(-62.4 -86.31)"/><path class="cls-4" d="M473.42,346.26a2.57,2.57,0,1,1-1.59-4.88,2.57,2.57,0,0,1,1.59,4.88Z" transform="translate(-62.4 -86.31)"/></g><g class="cls-3"><path class="cls-4" d="M457.5,183c-.13-.66-.36-2.8-1.77-3a2.51,2.51,0,0,0-2.84,2.18c-.2,1.41,2.3,2.13,2.85,2.35C456.13,184.76,457.6,183.49,457.5,183Z" transform="translate(-62.4 -86.31)"/><path class="cls-4" d="M464.89,182.62c-.13-.65-.37-2.8-1.78-3a2.53,2.53,0,0,0-2.84,2.19c-.19,1.41,2.3,2.12,2.85,2.35C463.52,184.37,465,183.1,464.89,182.62Z" transform="translate(-62.4 -86.31)"/><path class="cls-4" d="M462.72,189c-.14-.65-.37-2.8-1.78-2.95a2.51,2.51,0,0,0-2.84,2.18c-.2,1.41,2.3,2.13,2.85,2.35C461.34,190.71,462.82,189.44,462.72,189Z" transform="translate(-62.4 -86.31)"/><path class="cls-4" d="M461.21,196.36c-.13-.65-.37-2.79-1.78-3a2.53,2.53,0,0,0-2.84,2.19c-.19,1.41,2.3,2.12,2.85,2.35C459.84,198.11,461.31,196.84,461.21,196.36Z" transform="translate(-62.4 -86.31)"/><path class="cls-4" d="M470.1,188.58c-.13-.66-.36-2.8-1.77-3a2.52,2.52,0,0,0-2.85,2.18c-.19,1.41,2.31,2.12,2.86,2.35C468.73,190.32,470.2,189.05,470.1,188.58Z" transform="translate(-62.4 -86.31)"/><path class="cls-4" d="M468.41,195.47c-.13-.65-.36-2.8-1.78-2.95a2.52,2.52,0,0,0-2.83,2.19c-.2,1.41,2.3,2.12,2.85,2.35C467,197.22,468.51,196,468.41,195.47Z" transform="translate(-62.4 -86.31)"/><path class="cls-4" d="M466.91,202.87c-.14-.66-.37-2.8-1.78-3a2.51,2.51,0,0,0-2.84,2.18c-.2,1.41,2.3,2.13,2.85,2.35C465.53,204.61,467,203.34,466.91,202.87Z" transform="translate(-62.4 -86.31)"/><path class="cls-4" d="M475.8,195.08c-.14-.65-.37-2.8-1.78-3a2.52,2.52,0,0,0-2.84,2.18c-.2,1.41,2.3,2.13,2.85,2.35C474.42,196.82,475.9,195.55,475.8,195.08Z" transform="translate(-62.4 -86.31)"/><path class="cls-4" d="M474.11,202c-.14-.65-.37-2.79-1.78-2.94a2.51,2.51,0,0,0-2.84,2.18c-.19,1.41,2.3,2.12,2.85,2.35C472.73,203.72,474.21,202.45,474.11,202Z" transform="translate(-62.4 -86.31)"/><path class="cls-4" d="M472.6,209.37c-.13-.65-.37-2.8-1.78-3A2.53,2.53,0,0,0,468,208.6c-.19,1.41,2.3,2.13,2.86,2.35C471.23,211.11,472.7,209.84,472.6,209.37Z" transform="translate(-62.4 -86.31)"/><path class="cls-4" d="M481.49,201.58c-.13-.65-.36-2.8-1.77-3a2.52,2.52,0,0,0-2.84,2.19c-.2,1.41,2.3,2.12,2.85,2.35C480.12,203.33,481.59,202.06,481.49,201.58Z" transform="translate(-62.4 -86.31)"/><path class="cls-4" d="M479.8,208.48c-.13-.65-.36-2.8-1.78-2.95a2.52,2.52,0,0,0-2.84,2.18c-.19,1.41,2.3,2.13,2.86,2.35C478.43,210.22,479.9,209,479.8,208.48Z" transform="translate(-62.4 -86.31)"/><path class="cls-4" d="M478.3,215.87c-.14-.65-.37-2.8-1.78-3a2.52,2.52,0,0,0-2.84,2.19c-.2,1.41,2.3,2.12,2.85,2.35C476.92,217.62,478.4,216.35,478.3,215.87Z" transform="translate(-62.4 -86.31)"/><path class="cls-4" d="M465,209.92c-.13-.65-.36-2.8-1.77-2.95a2.52,2.52,0,0,0-2.84,2.19c-.2,1.4,2.3,2.12,2.85,2.34C463.66,211.67,465.13,210.4,465,209.92Z" transform="translate(-62.4 -86.31)"/><path class="cls-4" d="M470.73,216.42c-.14-.65-.37-2.8-1.78-2.95a2.53,2.53,0,0,0-2.84,2.19c-.19,1.41,2.3,2.12,2.85,2.35S470.83,216.9,470.73,216.42Z" transform="translate(-62.4 -86.31)"/><path class="cls-4" d="M482.74,194.41c-.13-.65-.36-2.8-1.77-2.95a2.52,2.52,0,0,0-2.84,2.19c-.2,1.41,2.3,2.12,2.85,2.34C481.37,196.16,482.84,194.89,482.74,194.41Z" transform="translate(-62.4 -86.31)"/><path class="cls-4" d="M488.06,175.64c-.84,3-1.68,5.94-2.43,8.9-8.89-6.32-16.76-10.41-24.39-12.71-6.83-2.05-11-.07-13.33,1.95a13,13,0,0,0-4,7.29l-.05.23v.23a32.89,32.89,0,0,0,.92,7.57c0,.1,2.88,10.9,5.86,17.55a131.83,131.83,0,0,0,6.93,13.42c-2,.18-4.09.39-6.16.61C460,230.4,468,239.78,479.6,246.1a7.9,7.9,0,0,0,2.6.78A13.45,13.45,0,0,0,492,247a44.77,44.77,0,0,0,11.17-6.35c1.2-.91,2.27-1.77,3.27-2.64h0a32.09,32.09,0,0,0,8.45-11.07c1.75-4,1.62-8.24-.39-12.83-.12-.46-.25-.86-.37-1.19C508.58,198.12,498.47,187.26,488.06,175.64Zm-31.55,29c.46.2.87.33,1.06.41.4.16,1.87-1.11,1.77-1.58-.14-.65-.37-2.8-1.78-2.95a2.53,2.53,0,0,0-2.37,1c-1.45-3.77-2.79-8.17-3.6-11a5.89,5.89,0,0,0,2.64,1.52c.39.16,1.87-1.1,1.77-1.58-.14-.65-.37-2.8-1.78-2.95a2.53,2.53,0,0,0-2.84,2.19.17.17,0,0,1,0,.07c-.37-1.33-.59-2.17-.6-2.19A27.27,27.27,0,0,1,450,182a6.7,6.7,0,0,1,2-3.55c1.64-1.44,4.13-1.66,7.42-.67a67.69,67.69,0,0,1,15.49,7.13,2.52,2.52,0,0,0-2.5,2.2c-.19,1.41,2.3,2.13,2.85,2.35s1.87-1.11,1.77-1.58a7.13,7.13,0,0,0-.57-2q3.69,2.32,7.66,5.25a66,66,0,0,0-1.31,15.34,2.52,2.52,0,0,0-.26.83,1.23,1.23,0,0,0,.37,1c.09,1.22.22,2.44.4,3.68a2.49,2.49,0,0,0-2.46,2.2c-.2,1.4,2.3,2.12,2.85,2.34a.56.56,0,0,0,.43-.1,59.64,59.64,0,0,0,2.14,7.23c-.81-.35-1.61-.67-2.41-1a.51.51,0,0,0,.1-.35c-.13-.65-.37-2.79-1.78-2.94a2.51,2.51,0,0,0-2.78,1.89c-1.3-.34-2.6-.63-3.88-.85a1.37,1.37,0,0,0-.9-.49,2.67,2.67,0,0,0-1.27.16,59.35,59.35,0,0,0-8.79-.46A123.41,123.41,0,0,1,456.51,204.59Z" transform="translate(-62.4 -86.31)"/></g><g class="cls-3"><path class="cls-4" d="M435.06,355.93c.64.18,2.65,1,3.43-.21a2.51,2.51,0,0,0-.62-3.53c-1.16-.82-2.94,1.06-3.4,1.44S434.59,355.8,435.06,355.93Z" transform="translate(-62.4 -86.31)"/><path class="cls-4" d="M432,362.66c.64.18,2.65,1,3.43-.21a2.51,2.51,0,0,0-.62-3.53c-1.16-.82-2.95,1.06-3.4,1.44S431.52,362.53,432,362.66Z" transform="translate(-62.4 -86.31)"/><path class="cls-4" d="M427.37,357.8c.64.18,2.65,1,3.44-.21a2.52,2.52,0,0,0-.63-3.53c-1.16-.83-2.94,1.06-3.4,1.44S426.9,357.66,427.37,357.8Z" transform="translate(-62.4 -86.31)"/><path class="cls-4" d="M421.51,353c.64.18,2.65,1,3.44-.21a2.53,2.53,0,0,0-.62-3.53c-1.16-.82-2.95,1.06-3.41,1.44S421,352.91,421.51,353Z" transform="translate(-62.4 -86.31)"/><path class="cls-4" d="M424.3,364.53c.64.18,2.65,1,3.44-.21a2.52,2.52,0,0,0-.63-3.53c-1.16-.83-2.94,1-3.4,1.44S423.83,364.39,424.3,364.53Z" transform="translate(-62.4 -86.31)"/><path class="cls-4" d="M419,359.84c.64.18,2.65,1,3.44-.21a2.52,2.52,0,0,0-.63-3.53c-1.16-.83-2.94,1-3.4,1.44S418.5,359.71,419,359.84Z" transform="translate(-62.4 -86.31)"/><path class="cls-4" d="M413.11,355.08c.64.18,2.65,1,3.44-.21a2.52,2.52,0,0,0-.63-3.53c-1.15-.82-2.94,1.06-3.4,1.44S412.64,355,413.11,355.08Z" transform="translate(-62.4 -86.31)"/><path class="cls-4" d="M415.9,366.57c.64.18,2.65,1,3.44-.22a2.51,2.51,0,0,0-.63-3.52c-1.16-.83-2.94,1.05-3.4,1.44S415.43,366.43,415.9,366.57Z" transform="translate(-62.4 -86.31)"/><path class="cls-4" d="M410.57,361.88c.64.18,2.65,1,3.43-.21a2.51,2.51,0,0,0-.62-3.53c-1.16-.83-2.94,1.05-3.4,1.44S410.1,361.74,410.57,361.88Z" transform="translate(-62.4 -86.31)"/><path class="cls-4" d="M404.71,357.12c.64.18,2.65,1,3.44-.21a2.52,2.52,0,0,0-.63-3.53c-1.16-.82-2.94,1.06-3.4,1.44S404.24,357,404.71,357.12Z" transform="translate(-62.4 -86.31)"/><path class="cls-4" d="M407.5,368.61c.64.18,2.65,1,3.44-.21a2.52,2.52,0,0,0-.63-3.53c-1.16-.83-2.94,1.05-3.4,1.44S407,368.47,407.5,368.61Z" transform="translate(-62.4 -86.31)"/><path class="cls-4" d="M402.17,363.92c.64.18,2.65,1,3.43-.21a2.51,2.51,0,0,0-.62-3.53c-1.16-.83-2.94,1.06-3.4,1.44S401.7,363.78,402.17,363.92Z" transform="translate(-62.4 -86.31)"/><path class="cls-4" d="M396.31,359.16c.64.18,2.65,1,3.44-.21a2.52,2.52,0,0,0-.63-3.53c-1.16-.83-2.94,1.06-3.4,1.44S395.84,359,396.31,359.16Z" transform="translate(-62.4 -86.31)"/><path class="cls-4" d="M407.72,350.16c.64.18,2.65,1,3.44-.21a2.52,2.52,0,0,0-.62-3.53c-1.16-.83-3,1.05-3.4,1.44S407.26,350,407.72,350.16Z" transform="translate(-62.4 -86.31)"/><path class="cls-4" d="M399.32,352.2c.64.18,2.65,1,3.44-.21a2.52,2.52,0,0,0-.62-3.53c-1.16-.83-2.95,1.05-3.4,1.44S398.86,352.06,399.32,352.2Z" transform="translate(-62.4 -86.31)"/><path class="cls-4" d="M413.28,373c.64.19,2.65,1,3.43-.21a2.52,2.52,0,0,0-.62-3.53c-1.16-.82-2.95,1.06-3.4,1.44S412.81,372.9,413.28,373Z" transform="translate(-62.4 -86.31)"/><path class="cls-4" d="M427.45,386.43c-2.25-2.13-4.48-4.24-6.76-6.27,9.72-5,17-10,22.55-15.74,5-5.11,5.17-9.74,4.44-12.72a13,13,0,0,0-4.59-7l-.18-.14-.2-.12a32.15,32.15,0,0,0-7.13-2.68c-.11,0-11-2.5-18.28-2.93a131.48,131.48,0,0,0-15.1-.07c.79-1.9,1.55-3.81,2.31-5.75-12.61,3.16-24.64,5.95-35.6,13.28a8.11,8.11,0,0,0-1.89,1.94,13.47,13.47,0,0,0-4.61,8.65,44.26,44.26,0,0,0,.47,12.83c.24,1.49.52,2.84.82,4.12h0a31.75,31.75,0,0,0,5.89,12.61c2.69,3.39,6.56,5.26,11.56,5.6a10.46,10.46,0,0,0,1.23.22C398,394.22,412.33,390.29,427.45,386.43ZM416.4,345.06c-.4.32-.71.63-.86.76-.33.27.12,2.16.58,2.3.64.18,2.65,1,3.44-.21a2.55,2.55,0,0,0,.21-2.56c4,.45,8.53,1.3,11.42,1.89-1.05.12-2.22,1.34-2.58,1.64s.12,2.16.59,2.29c.64.19,2.65,1,3.44-.21a2.51,2.51,0,0,0-.63-3.52l-.06,0c1.35.28,2.2.47,2.23.48a27,27,0,0,1,5.2,1.89,6.76,6.76,0,0,1,2.24,3.4c.51,2.11-.44,4.43-2.84,6.89a67.49,67.49,0,0,1-13.5,10.43,2.5,2.5,0,0,0-.79-3.24c-1.16-.82-2.95,1.06-3.4,1.45s.12,2.16.59,2.3a7.8,7.8,0,0,0,2,.42q-3.77,2.19-8.2,4.36a66.07,66.07,0,0,0-13-8.26,2.4,2.4,0,0,0-.62-.61,1.21,1.21,0,0,0-1.08-.15c-1.11-.48-2.26-.93-3.44-1.35a2.48,2.48,0,0,0-.81-3.19c-1.16-.83-2.95,1-3.4,1.44-.08.06-.11.22-.11.42a59.34,59.34,0,0,0-7.39-1.44c.68-.56,1.34-1.12,2-1.69a.55.55,0,0,0,.26.25c.64.18,2.65,1,3.44-.21a2.52,2.52,0,0,0-.39-3.34c.9-1,1.75-2,2.54-3a1.37,1.37,0,0,0,.86-.58,2.58,2.58,0,0,0,.44-1.19,59.79,59.79,0,0,0,4.48-7.58A122.92,122.92,0,0,1,416.4,345.06Z" transform="translate(-62.4 -86.31)"/></g><g class="cls-3"><path class="cls-4" d="M438,241.23c.64.18,2.65,1,3.44-.21a2.52,2.52,0,0,0-.62-3.53c-1.16-.83-2.95,1-3.4,1.44S437.55,241.09,438,241.23Z" transform="translate(-62.4 -86.31)"/><path class="cls-4" d="M434.94,248c.64.18,2.65,1,3.44-.21a2.52,2.52,0,0,0-.62-3.53c-1.16-.83-2.95,1.05-3.4,1.44S434.48,247.82,434.94,248Z" transform="translate(-62.4 -86.31)"/><path class="cls-4" d="M430.33,243.09c.63.19,2.65,1,3.43-.21a2.52,2.52,0,0,0-.62-3.53c-1.16-.82-2.95,1.06-3.4,1.44S429.86,243,430.33,243.09Z" transform="translate(-62.4 -86.31)"/><path class="cls-4" d="M424.47,238.34c.64.18,2.65,1,3.43-.21a2.52,2.52,0,0,0-.62-3.53c-1.16-.83-2.95,1.06-3.4,1.44S424,238.2,424.47,238.34Z" transform="translate(-62.4 -86.31)"/><path class="cls-4" d="M427.26,249.82c.63.19,2.64,1,3.43-.21a2.52,2.52,0,0,0-.62-3.53c-1.16-.82-2.95,1.06-3.4,1.45S426.79,249.69,427.26,249.82Z" transform="translate(-62.4 -86.31)"/><path class="cls-4" d="M421.92,245.13c.64.19,2.65,1,3.44-.21a2.52,2.52,0,0,0-.62-3.53c-1.16-.82-2.95,1.06-3.4,1.45S421.46,245,421.92,245.13Z" transform="translate(-62.4 -86.31)"/><path class="cls-4" d="M416.07,240.38c.64.18,2.65,1,3.43-.21a2.52,2.52,0,0,0-.62-3.53c-1.16-.83-2.95,1.05-3.4,1.44S415.6,240.25,416.07,240.38Z" transform="translate(-62.4 -86.31)"/><path class="cls-4" d="M418.85,251.86c.64.18,2.65,1,3.44-.21a2.52,2.52,0,0,0-.62-3.53c-1.16-.82-2.95,1.06-3.4,1.44S418.39,251.73,418.85,251.86Z" transform="translate(-62.4 -86.31)"/><path class="cls-4" d="M413.52,247.17c.64.19,2.65,1,3.44-.21a2.52,2.52,0,0,0-.62-3.53c-1.16-.82-2.95,1.06-3.4,1.45S413.06,247,413.52,247.17Z" transform="translate(-62.4 -86.31)"/><path class="cls-4" d="M407.67,242.42c.64.18,2.65,1,3.43-.22a2.51,2.51,0,0,0-.62-3.52c-1.16-.83-3,1-3.4,1.44S407.2,242.28,407.67,242.42Z" transform="translate(-62.4 -86.31)"/><path class="cls-4" d="M410.45,253.9c.64.18,2.65,1,3.44-.21a2.52,2.52,0,0,0-.62-3.53c-1.16-.82-2.95,1.06-3.4,1.44S410,253.77,410.45,253.9Z" transform="translate(-62.4 -86.31)"/><path class="cls-4" d="M405.12,249.21c.64.19,2.65,1,3.44-.21a2.52,2.52,0,0,0-.62-3.53c-1.16-.82-2.95,1.06-3.4,1.44S404.66,249.08,405.12,249.21Z" transform="translate(-62.4 -86.31)"/><path class="cls-4" d="M399.27,244.46c.64.18,2.64,1,3.43-.21a2.52,2.52,0,0,0-.62-3.53c-1.16-.83-2.95,1.05-3.4,1.44S398.8,244.32,399.27,244.46Z" transform="translate(-62.4 -86.31)"/><path class="cls-4" d="M410.68,235.45c.64.18,2.65,1,3.44-.21a2.52,2.52,0,0,0-.63-3.53c-1.16-.82-2.94,1.06-3.4,1.44S410.21,235.32,410.68,235.45Z" transform="translate(-62.4 -86.31)"/><path class="cls-4" d="M402.28,237.49c.64.18,2.65,1,3.44-.21a2.52,2.52,0,0,0-.63-3.53c-1.16-.82-2.94,1.06-3.4,1.44S401.81,237.36,402.28,237.49Z" transform="translate(-62.4 -86.31)"/><path class="cls-4" d="M416.23,258.33c.64.18,2.65,1,3.44-.21a2.52,2.52,0,0,0-.62-3.53c-1.16-.83-2.95,1.06-3.4,1.44S415.77,258.2,416.23,258.33Z" transform="translate(-62.4 -86.31)"/><path class="cls-4" d="M430.41,271.73c-2.26-2.13-4.49-4.24-6.76-6.27,9.71-5,17-10,22.55-15.75,5-5.1,5.16-9.73,4.44-12.72a13,13,0,0,0-4.59-7l-.19-.15-.2-.11a31.84,31.84,0,0,0-7.13-2.69c-.11,0-11-2.49-18.27-2.93a133.8,133.8,0,0,0-15.1-.07c.79-1.89,1.55-3.8,2.31-5.74-12.61,3.16-24.65,5.94-35.6,13.27a8.19,8.19,0,0,0-1.9,1.95,13.43,13.43,0,0,0-4.6,8.64,44.34,44.34,0,0,0,.47,12.84c.24,1.49.51,2.84.82,4.12h0a32,32,0,0,0,5.9,12.61c2.69,3.38,6.56,5.25,11.55,5.59.47.11.89.18,1.24.23C401,279.52,415.29,275.58,430.41,271.73Zm-11.06-41.37c-.39.31-.7.62-.86.75-.32.28.12,2.17.59,2.3.64.19,2.65,1,3.44-.21a2.55,2.55,0,0,0,.2-2.56c4,.45,8.53,1.31,11.42,1.9a5.87,5.87,0,0,0-2.57,1.63c-.33.28.12,2.17.59,2.3.64.18,2.64,1,3.43-.21a2.52,2.52,0,0,0-.62-3.53l-.06,0c1.35.28,2.19.48,2.22.48a26.92,26.92,0,0,1,5.21,1.9,6.68,6.68,0,0,1,2.24,3.39c.51,2.12-.45,4.44-2.85,6.9a68.06,68.06,0,0,1-13.49,10.43,2.52,2.52,0,0,0-.79-3.24c-1.16-.83-2.95,1.06-3.4,1.44s.12,2.17.58,2.3a7.35,7.35,0,0,0,2,.43c-2.51,1.46-5.23,2.91-8.19,4.35a66,66,0,0,0-13-8.25,2.8,2.8,0,0,0-.62-.62,1.25,1.25,0,0,0-1.08-.15c-1.12-.48-2.26-.93-3.44-1.34a2.51,2.51,0,0,0-.81-3.2c-1.16-.82-3,1.06-3.4,1.44a.59.59,0,0,0-.11.43,61.37,61.37,0,0,0-7.4-1.45c.69-.55,1.34-1.12,2-1.69a.55.55,0,0,0,.27.26c.63.18,2.65,1,3.43-.22a2.5,2.5,0,0,0-.39-3.34c.91-1,1.76-2,2.55-3a1.39,1.39,0,0,0,.85-.58,2.69,2.69,0,0,0,.45-1.19,59.81,59.81,0,0,0,4.47-7.59A124.54,124.54,0,0,1,419.35,230.36Z" transform="translate(-62.4 -86.31)"/></g></g><g id="contorno_Hormiga" data-name="contorno Hormiga"><path class="cls-2" d="M173.41,132a26.29,26.29,0,0,0-6.94.83c-12.11,3.1-17.92,10.26-20.65,15.72a33.88,33.88,0,0,0-3.08,18.93,52.3,52.3,0,0,0,3.66,14.33,7.05,7.05,0,0,1,.28.85l-.75-.95a37.45,37.45,0,0,0-11.84-9.38,72.68,72.68,0,0,0-11.86-4.88,100.2,100.2,0,0,0-13.73-3.33l-.79-.13-.8,0-1.69,0C92,163.67,82,165.59,74.81,169.81a25.67,25.67,0,0,0-9,8.55,22.66,22.66,0,0,0-3.36,10c-.62,6.78,1.9,14.29,6.74,20.09a31,31,0,0,0,9.85,7.82,37.14,37.14,0,0,0,13.73,3.82A55.83,55.83,0,0,1,111,225q-1.2,2.31-2.31,4.87c-1.34,3.1-2.33,5.89-3,7.82a46.11,46.11,0,0,0-8.57,27c.08,13.23,5.06,21.72,9.23,26.52a35.58,35.58,0,0,0,3,3.08,52.74,52.74,0,0,0,24.37,38.5,88.45,88.45,0,0,0,17.36,8.68A113.5,113.5,0,0,0,171.42,347l5.15.82c.51,1.05,1.06,2.1,1.64,3.15.71,1.27,1.42,2.44,2.11,3.51a32.74,32.74,0,0,0-.54,6.22,51,51,0,0,0,2.1,13.61c2.1,7.48,5.88,15.7,9.39,20.45A33.84,33.84,0,0,0,207.63,407l1.38.42a27,27,0,0,0,9.31,11.84,45.38,45.38,0,0,0,13.6,6.63A77.14,77.14,0,0,0,248.3,429l.32,0h.32l86.7,1.58,1.43,0,1.4-.29a39.86,39.86,0,0,0,13.62-6,98,98,0,0,0,12.08-9.44A136.7,136.7,0,0,0,384.6,391.8c6-8.91,13.17-21.05,17.58-28.72a36.27,36.27,0,0,0,11.49-3.23,38.45,38.45,0,0,0,3.4,1.93,49.49,49.49,0,0,0,21.3,5.12,43.3,43.3,0,0,0,23.54-6.47,37.93,37.93,0,0,0,3.84.27,63.85,63.85,0,0,0,11.32-.94,33.63,33.63,0,0,0,13.72-5.28,40,40,0,0,0,16.59,3.83,51.42,51.42,0,0,0,8.39-.56,50.05,50.05,0,0,0,14.53-4.3,34.54,34.54,0,0,0,6.14-3.81,32.11,32.11,0,0,0,7.5,1,42.94,42.94,0,0,0,6.44-.37,80,80,0,0,0,28.21,23A74.52,74.52,0,0,0,595.41,379a76.55,76.55,0,0,0,14.25,1.64,72.4,72.4,0,0,0,7.53-.23c4.64,4.41,12.24,11.47,20.85,18.72a245.11,245.11,0,0,0,22.34,17c9.54,6.29,17,9.64,23.53,10.55a118.78,118.78,0,0,0,14.31,1.23c9.68.19,17.91-1.12,25.15-4a45.07,45.07,0,0,0,21.42-17.68,40.62,40.62,0,0,0,6.39-16.31,29.74,29.74,0,0,0-11.81-28.58A34.47,34.47,0,0,0,728.74,356a34.16,34.16,0,0,0,3.19-6.15,28.77,28.77,0,0,0,2.1-10.47v-.55l0-.54c0-.1-1-10.06-1.46-21.67-.8-19.94.56-27.43,1.19-29.72a37.84,37.84,0,0,0,.95-16.14A34.72,34.72,0,0,0,729.22,257a42.35,42.35,0,0,0-20.15-15.67,33.89,33.89,0,0,0-11.47-2.14,50.6,50.6,0,0,0-12.73,1.52,32.14,32.14,0,0,0-1.24-6,30.44,30.44,0,0,0-6.22-11.06,40.85,40.85,0,0,0-28.36-13.19,34.81,34.81,0,0,0-15,3.11,53.81,53.81,0,0,0-17.54-3.23,68.1,68.1,0,0,0-17.44,2,87,87,0,0,0-11.95,3.89,32.75,32.75,0,0,0-9.75-10c-5.51-3.68-12.3-5.95-20.18-6.74-1.49-.15-3-.24-4.42-.27a39.46,39.46,0,0,0-21,5,34.07,34.07,0,0,0-12.22,12.19,39.59,39.59,0,0,0-2.28,4.49,34.34,34.34,0,0,0-9.65,2.65,33.19,33.19,0,0,0-9.09,6,27.77,27.77,0,0,0-7-1.06,27.25,27.25,0,0,0-15.29,4.38,29.56,29.56,0,0,0-9.76-1.89,31,31,0,0,0-16.62,4.63A50.47,50.47,0,0,0,435,233.22a53.34,53.34,0,0,0-6.25.23A32.54,32.54,0,0,0,417.19,237c-.59-.24-1.2-.46-1.82-.67a39,39,0,0,0-11-1.77c-1.1-5.93-2.5-13.2-3.85-19.59a39.6,39.6,0,0,0-12.25-21.7A38.55,38.55,0,0,0,363,183.83a51.82,51.82,0,0,0-9.66.75,38.89,38.89,0,0,0-16.22,6.57,35,35,0,0,0-5.46,4.84,41.15,41.15,0,0,0-17.41-4.13A52.46,52.46,0,0,0,302.42,193a49.5,49.5,0,0,0-20,8.75,36,36,0,0,0-10.86,13.34,34.32,34.32,0,0,0-3.2,17.84l0,.36.07.35,2.28,12.76a30.18,30.18,0,0,0-5.9,2.24,41.81,41.81,0,0,0-11.95-1.86c-1,0-1.89,0-2.81,0-.24-.94-.5-1.91-.79-2.91a81,81,0,0,0-6.66-16.21,76.73,76.73,0,0,0-13-17.39c-6.94-7-16.46-12.74-28.28-17.13-1-.35-1.87-.68-2.77-1,1.27-6.43,2.72-13.7,3.4-16.91,1.2-5.69-.09-12.45-1-16a45.72,45.72,0,0,0-8-17,28.54,28.54,0,0,0-7.89-7A24,24,0,0,0,173.41,132Z" transform="translate(-62.4 -86.31)"/><path class="cls-1" d="M173.14,145.23c12.61.26,17.24,21.41,16,27.43-1.38,6.54-5.78,29-5.78,29s23.49,4.44,37,18a65.77,65.77,0,0,1,18.74,42A53.11,53.11,0,0,1,252.59,260c4.73.09,9.75,1,13.38,3.92,0,0,4.82-5.34,12-5.19a16.31,16.31,0,0,1,8.81,3l-5.41-30.29s-2.45-19.91,23.78-25.47a38.86,38.86,0,0,1,8.84-.9c15.74.32,21.76,11.66,21.76,11.66s1.58-16,19.8-19.12a37.29,37.29,0,0,1,7.19-.57c13.95.28,22.46,9.22,24.89,20.74,2.82,13.38,5.91,31,5.91,31a47.41,47.41,0,0,1,10.25-1c5,.1,10.52,1.2,13.35,5.08,0,0,6.3-5.64,12.88-6.28a41.8,41.8,0,0,1,4.72-.17c5.92.12,12.72,1.46,16.68,4.85,0,0,6-7.21,14.78-7,3.55.08,7.57,1.36,11.83,4.83,0,0,4.87-7.49,13.21-7.32,3.24.07,7,1.28,11.19,4.53a20.93,20.93,0,0,1,20-12.39,30.36,30.36,0,0,1,4.81.5s1.13-22.38,25.19-21.9c1.08,0,2.2.09,3.38.21C580.9,215.22,579,235.28,579,235.28s17.67-12.07,37.21-11.68a39.25,39.25,0,0,1,18.68,4.93,20.93,20.93,0,0,1,13.9-4.81,25.34,25.34,0,0,1,11.09,3c14.91,7.64,12,19.39,11.54,25.56-.32,3.87,2.68,4.65,5,4.7a11.69,11.69,0,0,0,2.47-.21s9.29-4.48,18.48-4.3a21,21,0,0,1,7,1.27c10.73,4.11,20.82,14.44,16.64,29.81s-.12,56.13-.12,56.13.14,9.25-10,16S684.36,362,684,362h0l9.62,8.85s11.38-3.67,22.5-3.45a37.74,37.74,0,0,1,6.69.69c12.69,2.58,21.3,15,10.93,31-8,12.43-20.91,16-35.27,15.7a108.29,108.29,0,0,1-12.74-1.09c-19.27-2.71-64-47.17-64-47.17a50.64,50.64,0,0,1-11.8,1c-13.72-.28-36.69-5.26-53.93-32a37.4,37.4,0,0,1-11.79,2c-4.29-.09-8.67-1.32-11-5.28,0,0-1.12,9.8-19.34,12.52a35.92,35.92,0,0,1-6.18.42c-13.62-.27-18.93-8.91-18.93-8.91s-1.29,8.48-13.77,10.53a48.75,48.75,0,0,1-8.93.77c-5.36-.11-6.64-1.58-6.64-1.58a30.31,30.31,0,0,1-20.74,7.78c-12.75-.25-21.13-6.22-23.37-10.13,0,0-8.08,6.62-16.31,6.45a12.92,12.92,0,0,1-4.1-.72s-12.06,21.65-21.14,35.07c-9,13.25-27.36,31-37.84,33.07L249.17,416s-26.06-1.74-28.49-15.31l-.76-5.74-8.48-.45a20.81,20.81,0,0,1-9.6-7.47c-4.35-5.88-12.9-25.82-6.81-34.58,0,0-10.81-12.28-10.37-25.66,0,0-10.83,1.13-11.2,7.31,0,0-32.38-5.12-44.65-24a39.73,39.73,0,0,1-6.64-22.91s-11.83-4.75-11.94-22.58a32.47,32.47,0,0,1,7.28-20.71s4.4-15.83,12.26-22.63A67.25,67.25,0,0,0,94,207.08c-14.54-1.3-18.9-12.05-18.41-17.45s5.43-13,29.38-12.48l1.52,0s21.66,3.39,29.18,12.81c9.06,11.34,12.92,16.67,12.92,16.67s9.61-2.65,10.77-2.63,2.89-18.18-.79-27.14-7-26.59,11.18-31.25a12.57,12.57,0,0,1,3.41-.42" transform="translate(-62.4 -86.31)"/></g><path class="cls-2" d="M554.35,320.15a9,9,0,0,1-10.1,3.57c-3.35-.94-7.36-5-7.36-5s-4.47-33.09-4.73-36.6c-.38-5.14-2.81-8.79-7.82-7.91-6.2,1.08-5.9,7.46-5.81,9.75.09,2,4.67,32.24,5,34.5.22,1.55,1.56,9.67-10.67,12.19-12.06,2.49-16.54-4-16.81-6-.31-2.21-6.3-34-6.56-35.82-1-6.72-6-10.86-10.94-8.26-2.76,1.44-3.43,7.08-3.15,9q.9,6.41,2.77,19.15c1.25,8.5,1.43,9.64,2,13.86.17,1.18.79,9.71-9.87,11.55s-13.6-6.75-13.77-7.92c-.53-3.76-.7-5.06-1.71-12.56s-1.75-15.05-2.28-18.8c0,0,15.52,1.4,17.87-14.92,3.08-21.44-13.12-20.57-10.09-21.91,2.16-1,13.63.21,14.14,3.47s.1,6.62.42,6.58c.43-.25,1-8,10.7-11.65,12.18-4.64,18.54,5.62,20.19,9.36,2-3.73,1.82-14.6,20.12-16.4,15.24-1.5,22.21,5.78,25.05,15.33,0,0-4.25,5.23-4.31,15.21C546.51,301.37,555,319.25,554.35,320.15Z" transform="translate(-62.4 -86.31)"/><path class="cls-2" d="M448.92,291.38c-3.94.18,1.57,33.38,1.91,36.51s1.24,15.05-11.42,15.34c-10.06.24-13.72-7.3-14.08-16,0-1.05.62-1.21,1.38-2.06a36.78,36.78,0,0,0,9.7-24.51c.5-24.77-14.24-33.35-14.24-33.35,1.51-4.47,3.64-7.26,6.5-8.33,8.71-3.25,14,3,14.42,6.41s1-3.06,8.55-5c10.35-2.64,19.48,12.13,13.3,23.41S449.78,291.34,448.92,291.38Z" transform="translate(-62.4 -86.31)"/><path class="cls-2" d="M433.36,298.15c.14,20.14-15.27,36.57-34.41,36.69a32,32,0,0,1-13.15-2.24s0-14.26-.44-33.18A240.16,240.16,0,0,0,382.21,267c4.91-2.87,10.24-5,16.26-5C417.61,261.79,433.23,278,433.36,298.15ZM403,279.9a12.79,12.79,0,1,0,12.9,12.7A12.8,12.8,0,0,0,403,279.9Z" transform="translate(-62.4 -86.31)"/><path class="cls-2" d="M332.82,263.72s-6.12-25.51-7.28-30.91c-2-9.43-9.89-11.75-16.65-10.58s-12.32,5.05-10.47,19.38,9.41,54.56,9.41,54.56,1.23,26.28-1.11,36.42c-1.51,6.51-33.37,25.92-41.75,29.05A112.28,112.28,0,0,1,253,364.83l-42.47-1.3s-7.28-.89-7.26,3.43c0,2.65,2.63,6.92,9.22,10.16,2.1,1,4.63,2.55,7.69,2.62,21,.49,27.15.68,27.15.68s29.93,1.26,35.73-1.88c7.11-3.85,46.79-25.76,52.22-34,3.88-5.85,3.43-26.82,4.09-38.28,0,0,.41-8.53,7.66-9,4.94-.33,8,5.07,8,8.85s-.4,30.08-.4,30.08-.45,10.76-2.53,17c-2.63,7.86-6,13.06-12,22-3.44,5.16-12.28,16.23-19.52,15.82-12.49-.7-80.65-1.91-80.65-1.91s-7.17,1.43-4.15,6.58,11.42,6.68,16.83,6.93c11.49.53,72.32,1.44,76.34,1.57,6.84.24,10.4-2.6,14.26-6,14.75-13,36.48-44.93,39-55,0,0,.28-26.2-.92-52.09s-10.14-66.78-10.14-66.78-4.24-9.72-15.89-6.51-6.38,17-5.31,21.86,2.42,19.08,2.42,19.08,1.35,11.62-8.2,13.33C336.6,273.44,333.22,265.22,332.82,263.72Z" transform="translate(-62.4 -86.31)"/><path class="cls-2" d="M611,343.68c2.6,1.2,12,10.15,12,10.15a54.07,54.07,0,0,1-15.23.14c-17.87-2.16-27.19-9.56-29-11.09-3.48-3-6.64-6.27-7-9.83q0-.35,0-.69Zm15.46-17.19a18,18,0,0,0,2.72-8c.68-4.3-4.37-4.6-20.87-6.73-18-2.34-25.35-10.67-30.47-18.06-4.95-7.13-11.47-36.7,11.13-52.23,20-13.74,40.69-3.07,44,2.76q1,1.78,1.41,1.83c.43,0,1.09-10.85,12.78-10,7.59.53,10.22,6.9,9.31,13.79s-3,21.84-3.31,25.33q-.32,3.11-.86,9.31c-.37,4.15-2,18.58-2.22,20.64-1.2,11.9-3.13,24.9-9.24,33.79Zm6.37-48.27a18.2,18.2,0,0,0-3.21-12.63,14.55,14.55,0,0,0-22.24-2.14,18.55,18.55,0,0,0-5.67,11.84,17.8,17.8,0,0,0,3.3,12.59,14.26,14.26,0,0,0,10.52,6.21A14,14,0,0,0,627.11,290,18.33,18.33,0,0,0,632.78,278.22Z" transform="translate(-62.4 -86.31)"/><path class="cls-2" d="M551,281.93c.06-19,14.21-26.65,17.53-21.27,3.22,5.23,1.48,33.56,6,41.58,5.48,9.71,41.61,16.9,50.26,25.77,8.32,8.52,68.38,58.51,68.38,58.51s31.33-13.7,33.73-2.48c3,14.27-32.86,20.69-40,16.07-8.65-5.61-58.82-44.5-69.76-56.52-4-4.46-52.51-13.37-57-21S551,290.26,551,281.93Z" transform="translate(-62.4 -86.31)"/><path class="cls-2" d="M567.36,240.64a14.29,14.29,0,1,1-14-14.57A14.3,14.3,0,0,1,567.36,240.64Z" transform="translate(-62.4 -86.31)"/><path class="cls-2" d="M690.71,274.15s1.41-6.13,8.9-4.22c10.21,2.61,6.84,11.85,6.84,11.85a245.58,245.58,0,0,0-1.26,35.71c.44,10.63,1.89,19.92-.24,22.83s-13.33,4.75-16.29,3-5.14-6.1-5.14-6.1c-10.72,6-23.65,5.05-34.78-4.21,0,0,2.85-5.39,4.59-31,1-14.77,3.83-32.42,3.83-32.42C673.58,262.37,690.71,274.15,690.71,274.15Zm-18.26,10.32c-7.42-.8-14.12,5-15,12.95s4.49,15,11.91,15.82,14.12-5,15-13S679.87,285.26,672.45,284.47Z" transform="translate(-62.4 -86.31)"/><path class="cls-2" d="M189,217.76c-12.44-3.58-19.57-1.94-19.57-1.94a170.25,170.25,0,0,0,6.39-29.34c1-9.18,3.13-28.57-4.47-26.85s-2.37,11-.86,29.3c.79,9.63-1.36,19.49-3.56,26.66a98.76,98.76,0,0,0-10.47,2.8,68.29,68.29,0,0,0-8.8,4c-11.9-26.83-36-32.94-44.84-33.29s-15.68.36-15.06,3.44,4.88,3.17,4.88,3.17a93,93,0,0,1,29.85,6.91,49.06,49.06,0,0,1,23.62,20.58c-19,13.43-21,25.54-20.7,34.68a35.54,35.54,0,0,0,8,21.63s-1.69,10.48,6.24,24.28,25.93,17.6,25.93,17.6c.93-5.23,12.4-11.9,20.23-17.49s9.69-16.07,9.69-16.07-1.58,13.27-.74,36.45,19.87,33.09,36,29.48,16.5-19.88,9.62-28.89-15.89-2.29-15.89-2.29c-3.81-6.32,0-24.64,1.59-37.75S231.18,230.91,189,217.76Z" transform="translate(-62.4 -86.31)"/><path class="cls-2" d="M268.69,281.59s.88-6.23,8.51-5c10.4,1.72,7.83,11.22,7.83,11.22a245.62,245.62,0,0,0,1.81,35.69c1.35,10.55,3.59,19.68,1.72,22.76s-12.88,5.88-16,4.43-5.65-5.64-5.65-5.64c-12.63,8.62-23,3.12-23,3.12,8.57-12.31,2.06-23.27-4.48-28.78A10,10,0,0,0,228,318.26s-1.26-1.89-1.44-9.61,4.29-26.17,4.29-26.17C252.45,264.26,268.69,281.59,268.69,281.59Zm-17.3,11.84c-7.47-.15-13.65,6.21-13.81,14.19s5.76,14.59,13.22,14.74,13.64-6.2,13.8-14.19S258.85,293.58,251.39,293.43Z" transform="translate(-62.4 -86.31)"/><path class="cls-1" d="M198.65,257.85c-.21,10.66-8.37,19.15-18.22,18.95s-17.66-9-17.45-19.67,8.38-19.16,18.23-19S198.87,247.18,198.65,257.85Z" transform="translate(-62.4 -86.31)"/><path class="cls-1" d="M146.16,265.35c1.18,7.69-3.26,14.76-9.92,15.78s-13-4.39-14.2-12.09,3.27-14.76,9.92-15.78S145,257.65,146.16,265.35Z" transform="translate(-62.4 -86.31)"/><path class="cls-5" d="M194.23,260.43c-.12,5.89-4.68,10.57-10.19,10.46s-9.87-5-9.75-10.86,4.68-10.57,10.18-10.46S194.34,254.54,194.23,260.43Z" transform="translate(-62.4 -86.31)"/><ellipse class="cls-1" cx="189.86" cy="250.73" rx="3.83" ry="3.58" transform="matrix(0.02, -1, 1, 0.02, -126.91, 349.37)"/><path class="cls-1" d="M187.44,260.29a3.19,3.19,0,1,1-3.11-3.46A3.3,3.3,0,0,1,187.44,260.29Z" transform="translate(-62.4 -86.31)"/><path class="cls-5" d="M128.84,267.53c-.1,5,3.6,9.13,8.25,9.22s8.52-3.88,8.62-8.88-3.6-9.12-8.25-9.22S128.94,262.53,128.84,267.53Z" transform="translate(-62.4 -86.31)"/><path class="cls-1" d="M129.84,259.39a3,3,0,1,0,3.09-3.19A3.14,3.14,0,0,0,129.84,259.39Z" transform="translate(-62.4 -86.31)"/><path class="cls-1" d="M135.23,267.66a2.05,2.05,0,1,0,2.09-2.16A2.13,2.13,0,0,0,135.23,267.66Z" transform="translate(-62.4 -86.31)"/><path class="cls-2" d="M328.88,131.45a5.65,5.65,0,0,1,3.41-7.9l20-8a7.7,7.7,0,0,1,1.46,1.46,8.49,8.49,0,0,1,1.25,2.18,4.8,4.8,0,0,1,.3,3.68,3.93,3.93,0,0,1-2.25,2L340.27,130l2.25,5.65,13.67-5.43a8.39,8.39,0,0,1,1.45,1.43,8.23,8.23,0,0,1,1.24,2.15,4.9,4.9,0,0,1,.33,3.67,3.85,3.85,0,0,1-2.23,2l-11.18,4.44,2.53,6.38,15.62-6.2a7.7,7.7,0,0,1,1.46,1.46,8.42,8.42,0,0,1,1.25,2.17,4.88,4.88,0,0,1,.31,3.71,3.85,3.85,0,0,1-2.24,2.06l-17.75,7a5.64,5.64,0,0,1-7.89-3.41Z" transform="translate(-62.4 -86.31)"/><path class="cls-2" d="M380.6,149.41c-.44.2-1.1.48-2,.85a16.25,16.25,0,0,1-2.71.9,16.08,16.08,0,0,1-2.56.43,4.41,4.41,0,0,1-2.06-.31,3.68,3.68,0,0,1-1.55-1.27,6.87,6.87,0,0,1-1.05-2.47l-9-36.84,2-.85a18.32,18.32,0,0,1,2.71-.9,14.62,14.62,0,0,1,2.56-.42,4.31,4.31,0,0,1,2.06.3,3.82,3.82,0,0,1,1.55,1.27,6.87,6.87,0,0,1,1,2.47Z" transform="translate(-62.4 -86.31)"/><path class="cls-2" d="M413.93,129.43a19.69,19.69,0,0,1-.55,7.31,14.61,14.61,0,0,1-3,5.64,15,15,0,0,1-5,3.77,21.21,21.21,0,0,1-6.86,1.77,19.74,19.74,0,0,1-7.08-.51,15.37,15.37,0,0,1-5.69-2.83,15,15,0,0,1-4-5,20.49,20.49,0,0,1-1.34-14,15.12,15.12,0,0,1,3-5.64,15.37,15.37,0,0,1,5.05-3.87,19.69,19.69,0,0,1,6.85-1.83,19.07,19.07,0,0,1,7.08.54,15.67,15.67,0,0,1,5.69,2.87,15,15,0,0,1,4,5A18.55,18.55,0,0,1,413.93,129.43Zm-22.78,2.18a10.26,10.26,0,0,0,2.11,5.94,5,5,0,0,0,4.46,1.71,4.82,4.82,0,0,0,4-2.55,10.73,10.73,0,0,0,.88-6.2,10.37,10.37,0,0,0-2.07-5.87,5.3,5.3,0,0,0-8.46.8A10.41,10.41,0,0,0,391.15,131.61Z" transform="translate(-62.4 -86.31)"/><path class="cls-2" d="M427.76,135.74a2.65,2.65,0,0,0,.91,2.48,5.42,5.42,0,0,0,3,.93,12.56,12.56,0,0,0,2,0,11,11,0,0,0,1.86-.3,7.86,7.86,0,0,1,.9,1.67,5,5,0,0,1,.28,2.15,5.09,5.09,0,0,1-2.14,3.92q-2,1.43-6.67,1.11-5.73-.41-8.66-3.23t-2.5-8.69l1.94-27.92c.48-.1,1.18-.19,2.08-.28a16.83,16.83,0,0,1,2.85,0,8.31,8.31,0,0,1,4.4,1.32q1.53,1.13,1.3,4.38l-.29,4.18,8.55.59a11.06,11.06,0,0,1,.62,1.85,7.45,7.45,0,0,1,.2,2.4,4.58,4.58,0,0,1-1.24,3.23,3.7,3.7,0,0,1-2.78.82l-5.94-.41Z" transform="translate(-62.4 -86.31)"/><path class="cls-2" d="M452.92,151.84a22.87,22.87,0,0,1-6.73-2.66,16.33,16.33,0,0,1-4.88-4.45,15.06,15.06,0,0,1-2.53-6.16,19.07,19.07,0,0,1,.35-7.77,17.94,17.94,0,0,1,3-6.91,14.7,14.7,0,0,1,4.75-4.14,14.89,14.89,0,0,1,5.76-1.69,19.33,19.33,0,0,1,6.07.44,17.92,17.92,0,0,1,5.92,2.44,15.14,15.14,0,0,1,4.13,3.9,12.83,12.83,0,0,1,2.13,5,13.33,13.33,0,0,1-.14,5.68,4.46,4.46,0,0,1-2,3,6.15,6.15,0,0,1-3.72.68l-16.28-1.28a5.45,5.45,0,0,0,2.14,3.82,11.57,11.57,0,0,0,4.73,2.2,18.21,18.21,0,0,0,5.09.47,16.23,16.23,0,0,0,4.15-.68,5.49,5.49,0,0,1,1.31,2.18,4.74,4.74,0,0,1,.14,2.58,4.66,4.66,0,0,1-3.66,3.65,14.73,14.73,0,0,1-4.93.41A32.64,32.64,0,0,1,452.92,151.84Zm4-25.45a6.53,6.53,0,0,0-2.76-.1,5.5,5.5,0,0,0-2.12.89,5.67,5.67,0,0,0-1.47,1.54,7.82,7.82,0,0,0-.87,1.91l11.3.74a5,5,0,0,0-.81-2.88A4.86,4.86,0,0,0,456.93,126.39Z" transform="translate(-62.4 -86.31)"/><path class="cls-2" d="M495.09,156.15a9.19,9.19,0,0,1-6.49,5.68q-4.55,1.11-11.21-1.75a31,31,0,0,1-4.53-2.37,14.67,14.67,0,0,1-3.22-2.7,7.34,7.34,0,0,1-1.59-2.92,4.79,4.79,0,0,1,.29-3.08,5.07,5.07,0,0,1,1.65-2.18,6.55,6.55,0,0,1,2.15-1,26.37,26.37,0,0,0,3.26,3.43,17.91,17.91,0,0,0,4.88,3,6.74,6.74,0,0,0,3.08.69,1.77,1.77,0,0,0,1.61-1,1.65,1.65,0,0,0-.15-1.63,7.25,7.25,0,0,0-2.07-1.82l-1.65-1.13q-4.78-3.27-6.4-6.56a8.52,8.52,0,0,1,.15-7.37,9,9,0,0,1,2.69-3.61,9.16,9.16,0,0,1,4-1.85,14.93,14.93,0,0,1,5-.07,22.63,22.63,0,0,1,5.67,1.65,27.73,27.73,0,0,1,4,2.13,14.48,14.48,0,0,1,3,2.45,6.68,6.68,0,0,1,1.55,2.69,4.21,4.21,0,0,1-.23,2.85,5.45,5.45,0,0,1-3.53,3.25,8.89,8.89,0,0,0-1.18-1.25c-.54-.49-1.16-1-1.84-1.5s-1.39-1-2.12-1.44a14.5,14.5,0,0,0-2.06-1.1,8.67,8.67,0,0,0-3.25-.86,1.62,1.62,0,0,0-1.69.94A1.36,1.36,0,0,0,485,139a7.25,7.25,0,0,0,1.94,1.76l1.69,1.22q5.19,3.81,6.64,7.16A8.56,8.56,0,0,1,495.09,156.15Z" transform="translate(-62.4 -86.31)"/><path class="cls-2" d="M376.33,429.47a6.63,6.63,0,0,1-4.39,4.42c-2.13.69-4.85.47-8.15-.68a22.15,22.15,0,0,1-3.39-1.48A10.83,10.83,0,0,1,358,430a5.27,5.27,0,0,1-1.3-2,3.42,3.42,0,0,1,.05-2.23,3.66,3.66,0,0,1,1.08-1.65,4.56,4.56,0,0,1,1.49-.85,19.24,19.24,0,0,0,2.53,2.3,12.58,12.58,0,0,0,3.66,1.89,4.75,4.75,0,0,0,2.26.34,1.26,1.26,0,0,0,1.1-.82,1.17,1.17,0,0,0-.19-1.16,5.25,5.25,0,0,0-1.58-1.2l-1.25-.73a13.2,13.2,0,0,1-4.94-4.4,6.12,6.12,0,0,1-.28-5.31,6.5,6.5,0,0,1,4.53-4.27,10.57,10.57,0,0,1,3.58-.31,15.82,15.82,0,0,1,4.16.9,19.48,19.48,0,0,1,3,1.32,10.84,10.84,0,0,1,2.26,1.61,4.67,4.67,0,0,1,1.25,1.86,3,3,0,0,1,0,2.07,4,4,0,0,1-1,1.63,4.13,4.13,0,0,1-1.38.89,6.08,6.08,0,0,0-.91-.84c-.42-.33-.89-.66-1.4-1s-1.06-.64-1.6-.93a10.41,10.41,0,0,0-1.54-.68,6.25,6.25,0,0,0-2.39-.46,1.18,1.18,0,0,0-1.17.77,1,1,0,0,0,.17,1,5.22,5.22,0,0,0,1.49,1.16l1.28.8c2.62,1.64,4.34,3.25,5.15,4.81A6.2,6.2,0,0,1,376.33,429.47Z" transform="translate(-62.4 -86.31)"/><path class="cls-1" d="M369.31,441.28a24,24,0,0,1-7.82-1.46,30.14,30.14,0,0,1-4.44-1.94,17.46,17.46,0,0,1-4.07-3,12.13,12.13,0,0,1-3-4.77,10.81,10.81,0,0,1,3.28-11.42,13.81,13.81,0,0,1,.69-6.88,13.51,13.51,0,0,1,9.28-8.72,17.39,17.39,0,0,1,5.92-.54,22.79,22.79,0,0,1,6,1.27,25.65,25.65,0,0,1,4.08,1.79A17.76,17.76,0,0,1,383,408.3a11.91,11.91,0,0,1,3,4.57,10,10,0,0,1,0,6.71,11,11,0,0,1-2.66,4.29,13.39,13.39,0,0,1-.38,7.9h0a13.71,13.71,0,0,1-8.85,8.79A15.48,15.48,0,0,1,369.31,441.28ZM362.92,425Z" transform="translate(-62.4 -86.31)"/><path class="cls-2" d="M403.48,428.89a14.19,14.19,0,0,1-1.63,5,10.54,10.54,0,0,1-3,3.46,10.71,10.71,0,0,1-4.19,1.78,15,15,0,0,1-5.11.08,14.35,14.35,0,0,1-4.88-1.55,10.91,10.91,0,0,1-3.51-3,10.74,10.74,0,0,1-2-4.16,14.81,14.81,0,0,1,1.43-10.05,10.84,10.84,0,0,1,3.05-3.45,11.11,11.11,0,0,1,4.2-1.86,14.29,14.29,0,0,1,5.12-.12,13.88,13.88,0,0,1,4.87,1.57,11.59,11.59,0,0,1,3.51,3,10.85,10.85,0,0,1,2,4.17A13.61,13.61,0,0,1,403.48,428.89Zm-16.36-2.34a7.45,7.45,0,0,0,.48,4.53,3.6,3.6,0,0,0,2.84,2,3.49,3.49,0,0,0,3.24-1.12,7.77,7.77,0,0,0,1.67-4.19,7.58,7.58,0,0,0-.46-4.48,3.83,3.83,0,0,0-6.07-.86A7.45,7.45,0,0,0,387.12,426.55Z" transform="translate(-62.4 -86.31)"/><path class="cls-1" d="M391.92,446.42a23.38,23.38,0,0,1-3.4-.25,21.45,21.45,0,0,1-7.25-2.34,18.23,18.23,0,0,1-5.69-4.82,17.74,17.74,0,0,1-3.23-6.81,21.8,21.8,0,0,1,2.16-15.15,17.74,17.74,0,0,1,11.82-8.67,21.27,21.27,0,0,1,7.62-.22,20.8,20.8,0,0,1,7.29,2.39,18.52,18.52,0,0,1,5.64,4.81,17.86,17.86,0,0,1,3.22,6.81,20.45,20.45,0,0,1,.31,7.71,21.46,21.46,0,0,1-2.46,7.49A17.32,17.32,0,0,1,396,446,20.34,20.34,0,0,1,391.92,446.42Zm2.08-18Zm-5.1-1.54a3.55,3.55,0,0,0,2.18,1.39,3.47,3.47,0,0,0,2.51-.75h0l-4.64-.67Zm-.68.76Zm.72-.79,4.64.67a3.42,3.42,0,0,0-2.15-1.37A3.54,3.54,0,0,0,388.94,426.81Zm5.3-.07Z" transform="translate(-62.4 -86.31)"/><path class="cls-2" d="M419.7,425.5a2.65,2.65,0,0,0-.88-2.13,3.47,3.47,0,0,0-2.26-.63,7.82,7.82,0,0,0-1.86.28,4.92,4.92,0,0,0-1.56.75l.4,16.37a9.48,9.48,0,0,1-1.48.32,15.59,15.59,0,0,1-2.09.2,11.92,11.92,0,0,1-1.87-.1,3.27,3.27,0,0,1-1.41-.53,2.79,2.79,0,0,1-.9-1.14,4.92,4.92,0,0,1-.35-1.9l-.35-14.15a3.63,3.63,0,0,1,.49-2.09,5.54,5.54,0,0,1,1.45-1.5,13.49,13.49,0,0,1,4-1.94,18.67,18.67,0,0,1,5.38-.84c3.56-.09,6.31.62,8.27,2.13a7.89,7.89,0,0,1,3,6.41l.37,14.77a10.05,10.05,0,0,1-1.48.32,15.9,15.9,0,0,1-2.1.2,12,12,0,0,1-1.87-.1,3.18,3.18,0,0,1-1.4-.53,2.7,2.7,0,0,1-.91-1.13,5.21,5.21,0,0,1-.35-1.91Z" transform="translate(-62.4 -86.31)"/><path class="cls-1" d="M409.61,447.66a18.41,18.41,0,0,1-2.53-.17,10.17,10.17,0,0,1-4.44-1.75,9.81,9.81,0,0,1-3.24-4,11.64,11.64,0,0,1-1-4.58L398.09,423a10.43,10.43,0,0,1,1.6-6,12.67,12.67,0,0,1,3.19-3.36,20.39,20.39,0,0,1,6-3,26.16,26.16,0,0,1,7.33-1.17c5.18-.12,9.46,1.08,12.72,3.58a14.86,14.86,0,0,1,5.76,11.79l.49,20-4.94,1.62a16.48,16.48,0,0,1-2.52.58,22,22,0,0,1-3.07.28,17.46,17.46,0,0,1-3.05-.16,10.52,10.52,0,0,1-3.46-1.14l-2.44.8a15.93,15.93,0,0,1-2.52.58,21.89,21.89,0,0,1-3.06.28Zm3.09-22Z" transform="translate(-62.4 -86.31)"/><path class="cls-2" d="M444.22,413.06a18,18,0,0,1,5.29-.48,11.35,11.35,0,0,1,4.57,1.24,10.46,10.46,0,0,1,3.53,3.09A13.54,13.54,0,0,1,459.8,422a15,15,0,0,1,.37,5.35,10.36,10.36,0,0,1-1.49,4.24,9.84,9.84,0,0,1-3.14,3.08A15.06,15.06,0,0,1,451,436.5a11.56,11.56,0,0,1-3.81.25l1.76,7.63a10.62,10.62,0,0,1-1.4.64,12.3,12.3,0,0,1-2,.64,11.5,11.5,0,0,1-1.85.29,3.19,3.19,0,0,1-1.48-.24,2.51,2.51,0,0,1-1.09-.94,5.48,5.48,0,0,1-.71-1.8l-5.11-22.07a3.65,3.65,0,0,1,.06-2.14,5.6,5.6,0,0,1,1.12-1.76,12.19,12.19,0,0,1,3.2-2.29A18.74,18.74,0,0,1,444.22,413.06Zm4.16,17.54c3.15-.73,4.3-3,3.42-6.75a7,7,0,0,0-2.18-4.1,4.23,4.23,0,0,0-3.71-.64,5.34,5.34,0,0,0-1.52.57,5.53,5.53,0,0,0-1.08.76l2.34,10.11a7.68,7.68,0,0,0,1.3.19A5.46,5.46,0,0,0,448.38,430.6Z" transform="translate(-62.4 -86.31)"/><path class="cls-1" d="M443.38,453a10,10,0,0,1-4.07-.84,9.58,9.58,0,0,1-4.05-3.4,12.28,12.28,0,0,1-1.74-4.16l-5.11-22.07a10.43,10.43,0,0,1,.35-6.23,12.6,12.6,0,0,1,2.44-3.94l.18-.19a19.53,19.53,0,0,1,5-3.61,26,26,0,0,1,6.28-2.27,24.92,24.92,0,0,1,7.32-.64,18.15,18.15,0,0,1,7.39,2,17.36,17.36,0,0,1,5.89,5.12,20.62,20.62,0,0,1,3.38,7.67,21.81,21.81,0,0,1,.49,7.83,17.35,17.35,0,0,1-2.52,7.08,16.67,16.67,0,0,1-5.34,5.26,20.33,20.33,0,0,1-3.62,1.79l1.27,5.5-4.52,2.58a19.72,19.72,0,0,1-2.24,1.05,21.21,21.21,0,0,1-3.08,1,17.37,17.37,0,0,1-3,.45C443.81,453,443.59,453,443.38,453Zm1.71-26.87Zm.23-.81,0,0a3.19,3.19,0,0,0,1.42.61l.26-1.11-.06-.26-.52-.58A3.45,3.45,0,0,0,445.32,425.27Zm1.66-.72.06.24,0-.14Zm-2.24.1Z" transform="translate(-62.4 -86.31)"/><path class="cls-2" d="M465.57,406.41a19.13,19.13,0,0,1,4.5-1.28,10.41,10.41,0,0,1,3.92.1,7.16,7.16,0,0,1,3.14,1.62,8.75,8.75,0,0,1,2.2,3.26l4,9.78a2.91,2.91,0,0,1,.12,2.12,6.73,6.73,0,0,1-1,1.86c-1.42,1.91-3.86,3.57-7.29,5a20,20,0,0,1-4.35,1.27,10.83,10.83,0,0,1-3.73,0,6.47,6.47,0,0,1-3-1.38,7.2,7.2,0,0,1-2-2.85,6.39,6.39,0,0,1-.1-5.37,10.44,10.44,0,0,1,4.72-4.28l5.47-3-.12-.31a2,2,0,0,0-1.86-1.35,8.07,8.07,0,0,0-3.43.76,16.4,16.4,0,0,0-3.09,1.68,18.22,18.22,0,0,0-2.48,2,3.23,3.23,0,0,1-1.46-.8,4.15,4.15,0,0,1-1.08-1.52,3.1,3.1,0,0,1-.2-2,4.66,4.66,0,0,1,1.21-1.85,14.9,14.9,0,0,1,2.71-1.92A27.76,27.76,0,0,1,465.57,406.41Zm7.38,17a10.92,10.92,0,0,0,1.58-.82,4.54,4.54,0,0,0,1.16-1l-1.43-3.5-3,1.55a5.1,5.1,0,0,0-1.79,1.35,1.51,1.51,0,0,0-.25,1.63,1.85,1.85,0,0,0,1.25,1.14A4,4,0,0,0,473,423.43Z" transform="translate(-62.4 -86.31)"/><path class="cls-1" d="M468.88,437.28a16.84,16.84,0,0,1-3.12-.29,13.61,13.61,0,0,1-6.11-2.88,14.16,14.16,0,0,1-4-5.58,13.81,13.81,0,0,1-.87-8.34,11.06,11.06,0,0,1-2.56-3.77,9.88,9.88,0,0,1-.42-6.69,11.53,11.53,0,0,1,2.94-4.78l.19-.18a21,21,0,0,1,4-2.9,35.13,35.13,0,0,1,4-1.94h0a27.15,27.15,0,0,1,6.13-1.73,17.44,17.44,0,0,1,6.55.22,14,14,0,0,1,6.16,3.19,15.57,15.57,0,0,1,4.05,5.84l4,9.79a9.85,9.85,0,0,1,.27,7,13.62,13.62,0,0,1-2,3.78c-2.22,3-5.57,5.35-10.25,7.27a26.77,26.77,0,0,1-5.9,1.7A18.69,18.69,0,0,1,468.88,437.28Zm6.17-17.58.55,1.08.25-.18a4.3,4.3,0,0,0-.2-.57,3.54,3.54,0,0,0-.25-.52Z" transform="translate(-62.4 -86.31)"/><path class="cls-2" d="M495.42,418.05a11.53,11.53,0,0,1-1.15,1,15.67,15.67,0,0,1-1.75,1.17,12,12,0,0,1-1.69.8,3.18,3.18,0,0,1-1.49.2,2.65,2.65,0,0,1-1.33-.57,5,5,0,0,1-1.22-1.5l-7-12.29a4.07,4.07,0,0,1-.58-1.82,4.55,4.55,0,0,1,.31-1.78,8.54,8.54,0,0,1,1.07-1.89,19,19,0,0,1,1.64-1.94,19.57,19.57,0,0,1,2-1.83,17.42,17.42,0,0,1,2.27-1.54,6.5,6.5,0,0,1,3.54-1,3.19,3.19,0,0,1,2.57,1.82,4.56,4.56,0,0,1,.48,1.22,5.63,5.63,0,0,1,.16,1.24c-.57.33-1.14.69-1.71,1.09s-1.11.82-1.62,1.26-1,.86-1.42,1.27a8.11,8.11,0,0,0-1,1.17Z" transform="translate(-62.4 -86.31)"/><path class="cls-1" d="M489.68,428.22a9.66,9.66,0,0,1-1.2-.07,9.78,9.78,0,0,1-4.73-2,11.61,11.61,0,0,1-3-3.58l-7-12.29a10.86,10.86,0,0,1-1.5-5,11.42,11.42,0,0,1,.77-4.61,15.49,15.49,0,0,1,1.95-3.5,26.56,26.56,0,0,1,2.22-2.64,27.56,27.56,0,0,1,2.7-2.47A25.12,25.12,0,0,1,483,390a13.19,13.19,0,0,1,7.46-1.93,10.18,10.18,0,0,1,8.2,5.32,11.92,11.92,0,0,1,1.22,3.09,12.74,12.74,0,0,1,.35,2.7l.09,4.16-3.61,2.07a3.24,3.24,0,0,0-.35.21l7.74,13.51-3.59,3.78a17.46,17.46,0,0,1-1.93,1.69,22.05,22.05,0,0,1-2.57,1.71,18,18,0,0,1-2.76,1.31A10.28,10.28,0,0,1,489.68,428.22Z" transform="translate(-62.4 -86.31)"/><path class="cls-2" d="M497.07,388.76a19.48,19.48,0,0,1,4-2.39,10.51,10.51,0,0,1,3.82-.89,7.09,7.09,0,0,1,3.45.77,8.56,8.56,0,0,1,2.95,2.59l6.37,8.44a2.93,2.93,0,0,1,.66,2,7,7,0,0,1-.49,2.06q-1.35,3.31-5.79,6.67a19.89,19.89,0,0,1-3.89,2.33,10.4,10.4,0,0,1-3.6.94,6.5,6.5,0,0,1-3.22-.58,7.22,7.22,0,0,1-2.67-2.25,6.37,6.37,0,0,1-1.46-5.16A10.42,10.42,0,0,1,500.7,398l4.54-4.25-.2-.26a2,2,0,0,0-2.14-.84,8.24,8.24,0,0,0-3.13,1.61,16.3,16.3,0,0,0-2.56,2.41,18.55,18.55,0,0,0-1.88,2.6,3.29,3.29,0,0,1-1.61-.41,4.21,4.21,0,0,1-1.44-1.2,3,3,0,0,1-.7-1.92,4.62,4.62,0,0,1,.69-2.09,14.6,14.6,0,0,1,2.13-2.55A28.34,28.34,0,0,1,497.07,388.76Zm11.46,14.58a10.1,10.1,0,0,0,1.32-1.2,4.25,4.25,0,0,0,.88-1.22l-2.27-3-2.55,2.27a5.17,5.17,0,0,0-1.39,1.76,1.52,1.52,0,0,0,.17,1.64,1.88,1.88,0,0,0,1.51.78A4,4,0,0,0,508.53,403.34Z" transform="translate(-62.4 -86.31)"/><path class="cls-1" d="M504.09,418.31a13.35,13.35,0,0,1-5.7-1.26,14,14,0,0,1-5.3-4.37,13.82,13.82,0,0,1-3-7.85,10.9,10.9,0,0,1-3.44-3,9.93,9.93,0,0,1-2.11-6.36,11.45,11.45,0,0,1,1.64-5.37l.13-.22a20.88,20.88,0,0,1,3.17-3.83,35.4,35.4,0,0,1,3.33-2.88h0a26,26,0,0,1,5.48-3.23,17.21,17.21,0,0,1,6.39-1.46,14.07,14.07,0,0,1,6.78,1.52,15.48,15.48,0,0,1,5.39,4.62l6.37,8.45a9.85,9.85,0,0,1,2.05,6.74,14.09,14.09,0,0,1-1,4.16c-1.4,3.45-4,6.6-8.07,9.64a27,27,0,0,1-5.27,3.15,17.88,17.88,0,0,1-6,1.52Q504.55,418.31,504.09,418.31Zm5.52-19.11.81.91.2-.24a4,4,0,0,0-.34-.5,3.91,3.91,0,0,0-.37-.44Z" transform="translate(-62.4 -86.31)"/><path class="cls-2" d="M527.8,382.32a1.93,1.93,0,0,0,1.8.63,3.93,3.93,0,0,0,1.89-1.24,8.75,8.75,0,0,0,.91-1.14,8.42,8.42,0,0,0,.69-1.17,5.87,5.87,0,0,1,1.34.26,3.53,3.53,0,0,1,1.33.83,3.64,3.64,0,0,1,1.2,3q-.09,1.75-2.43,4.22a9.67,9.67,0,0,1-5.76,3.36q-2.91.33-6-2.58l-14.7-13.87c.17-.31.44-.74.8-1.29a12.29,12.29,0,0,1,1.29-1.61,6,6,0,0,1,2.75-1.84c.89-.23,1.9.2,3,1.28l2.2,2.07,4.24-4.5a8,8,0,0,1,1.32.5,5.41,5.41,0,0,1,1.43,1,3.29,3.29,0,0,1,1.23,2.17,2.66,2.66,0,0,1-.81,1.93l-2.95,3.12Z" transform="translate(-62.4 -86.31)"/><path class="cls-1" d="M528.18,398.09c-2.73,0-6.4-.92-10.22-4.52L499.38,376l2.52-4.71c.28-.52.64-1.11,1.14-1.87a18.38,18.38,0,0,1,2-2.54,12.9,12.9,0,0,1,6.11-3.83,9.28,9.28,0,0,1,6.28.67l2.7-2.86,4,1.06a14.93,14.93,0,0,1,2.48.92,12.5,12.5,0,0,1,3.29,2.25,10,10,0,0,1,3.42,7.06v.22l.22,0a12.69,12.69,0,0,1,3,.57,10.48,10.48,0,0,1,4,2.41,10.64,10.64,0,0,1,3.39,8.47c-.16,2.9-1.58,5.73-4.33,8.64-3,3.23-6.44,5.09-10,5.5A12,12,0,0,1,528.18,398.09Zm4.42-20.86Z" transform="translate(-62.4 -86.31)"/><path class="cls-2" d="M516.4,353.66a5.5,5.5,0,0,1,3-2.21,2.94,2.94,0,0,1,2.47.54,3.15,3.15,0,0,1,1.19,1.8,6.8,6.8,0,0,1-.07,2.71l-1.27,6.76a3.81,3.81,0,0,1-2.38,1.19,3,3,0,0,1-2.28-.55,2.44,2.44,0,0,1-.71-.92,2.89,2.89,0,0,1-.23-1.39Zm28.18,20.9-.75,1.37a13.11,13.11,0,0,1-1.15,1.71,10.74,10.74,0,0,1-1.27,1.37,3.16,3.16,0,0,1-1.31.74,2.76,2.76,0,0,1-1.45,0,5.13,5.13,0,0,1-1.68-1l-15.05-11.94c.16-.31.41-.76.75-1.36a12.11,12.11,0,0,1,1.14-1.71,11.66,11.66,0,0,1,1.27-1.38,3.22,3.22,0,0,1,1.31-.74,2.87,2.87,0,0,1,1.45,0,5,5,0,0,1,1.69.95Z" transform="translate(-62.4 -86.31)"/><path class="cls-1" d="M539.46,386.83a10,10,0,0,1-2.7-.38,11.6,11.6,0,0,1-4.14-2.2l-16.57-13.13a9.75,9.75,0,0,1-3.39-1.73A9.49,9.49,0,0,1,510,366a9.8,9.8,0,0,1-.88-4.71l.42-10.15,1.42-1.78a12.08,12.08,0,0,1,7.07-4.72,9.88,9.88,0,0,1,8.18,1.92,10.13,10.13,0,0,1,3.67,5.71,11.81,11.81,0,0,1,.27,2.84,12,12,0,0,1,3.77,2.08l19.63,15.58-2.76,5.15c-.18.34-.45.82-.81,1.46a18.41,18.41,0,0,1-1.78,2.66,18.1,18.1,0,0,1-2.08,2.24,10.09,10.09,0,0,1-4.2,2.29A9.39,9.39,0,0,1,539.46,386.83Zm-21.71-29.15a4.21,4.21,0,0,0,1.52.62l.63-.65a3.8,3.8,0,0,0-1.42-.16A3.28,3.28,0,0,0,517.75,357.68Zm-1.63-2.89Z" transform="translate(-62.4 -86.31)"/><path class="cls-2" d="M376.4,428.66a6.63,6.63,0,0,1-4.52,4.28q-3.22.93-8.13-.94a22.39,22.39,0,0,1-3.33-1.57,10.68,10.68,0,0,1-2.4-1.86,5.26,5.26,0,0,1-1.24-2.06,3.44,3.44,0,0,1,.12-2.23,3.62,3.62,0,0,1,1.13-1.61,4.49,4.49,0,0,1,1.52-.81,18.55,18.55,0,0,0,2.45,2.37,12.82,12.82,0,0,0,3.6,2,4.76,4.76,0,0,0,2.25.41,1.28,1.28,0,0,0,1.13-.78,1.16,1.16,0,0,0-.16-1.17,5.24,5.24,0,0,0-1.54-1.25l-1.22-.77a13.26,13.26,0,0,1-4.81-4.54,6.14,6.14,0,0,1-.11-5.33,6.64,6.64,0,0,1,1.83-2.68,6.76,6.76,0,0,1,2.83-1.45,10.77,10.77,0,0,1,3.59-.19,16.06,16.06,0,0,1,4.13,1,20.44,20.44,0,0,1,3,1.42,10.24,10.24,0,0,1,2.21,1.68,4.87,4.87,0,0,1,1.2,1.89,3.08,3.08,0,0,1-.09,2.07,4,4,0,0,1-1,1.6,4.13,4.13,0,0,1-1.41.85,5.54,5.54,0,0,0-.88-.87c-.41-.34-.87-.69-1.37-1s-1-.67-1.57-1a10.89,10.89,0,0,0-1.52-.73,6.45,6.45,0,0,0-2.37-.53,1.17,1.17,0,0,0-1.19.73,1,1,0,0,0,.13,1,5.4,5.4,0,0,0,1.46,1.22l1.25.83q3.85,2.58,5,5A6.2,6.2,0,0,1,376.4,428.66Z" transform="translate(-62.4 -86.31)"/><path class="cls-2" d="M403.73,428.58a14.36,14.36,0,0,1-1.68,5,10.43,10.43,0,0,1-7.3,5.15,15.08,15.08,0,0,1-5.11,0,14.13,14.13,0,0,1-4.86-1.61,11,11,0,0,1-3.48-3,10.77,10.77,0,0,1-1.9-4.19,14.76,14.76,0,0,1,1.55-10,10.79,10.79,0,0,1,7.31-5.22,14.59,14.59,0,0,1,5.12-.06,13.74,13.74,0,0,1,4.86,1.64,11.43,11.43,0,0,1,3.47,3,10.91,10.91,0,0,1,1.9,4.19A13.45,13.45,0,0,1,403.73,428.58ZM387.41,426a7.4,7.4,0,0,0,.42,4.54,3.61,3.61,0,0,0,2.82,2,3.48,3.48,0,0,0,3.24-1.07,7.74,7.74,0,0,0,1.73-4.18,7.47,7.47,0,0,0-.41-4.48,3.82,3.82,0,0,0-6.06-.94A7.5,7.5,0,0,0,387.41,426Z" transform="translate(-62.4 -86.31)"/><path class="cls-2" d="M420,425.33a2.65,2.65,0,0,0-.86-2.14,3.48,3.48,0,0,0-2.25-.65,7.8,7.8,0,0,0-1.86.26,4.57,4.57,0,0,0-1.57.74l.23,16.37a11.17,11.17,0,0,1-1.48.31,15.66,15.66,0,0,1-2.1.17,10.63,10.63,0,0,1-1.86-.12,3.19,3.19,0,0,1-1.4-.54,2.73,2.73,0,0,1-.89-1.15,5,5,0,0,1-.34-1.9l-.2-14.16a3.63,3.63,0,0,1,.51-2.09,5.57,5.57,0,0,1,1.47-1.48,13.53,13.53,0,0,1,4-1.9,19.26,19.26,0,0,1,5.4-.79q5.32-.08,8.24,2.22a7.91,7.91,0,0,1,3,6.45l.21,14.77a10.32,10.32,0,0,1-1.48.3,14.39,14.39,0,0,1-2.1.18,10.75,10.75,0,0,1-1.87-.12,3.19,3.19,0,0,1-1.4-.54,2.73,2.73,0,0,1-.89-1.15,5,5,0,0,1-.33-1.9Z" transform="translate(-62.4 -86.31)"/><path class="cls-2" d="M444.61,413a18,18,0,0,1,5.29-.46,11.2,11.2,0,0,1,4.57,1.25,10.33,10.33,0,0,1,3.52,3.09,13.59,13.59,0,0,1,2.19,5.09,15.17,15.17,0,0,1,.35,5.35,10.23,10.23,0,0,1-1.5,4.24,9.81,9.81,0,0,1-3.14,3.07,15.2,15.2,0,0,1-4.6,1.82,11,11,0,0,1-3.81.25l1.75,7.64a13.86,13.86,0,0,1-1.41.63,12.3,12.3,0,0,1-2,.64,11.41,11.41,0,0,1-1.85.28,3.19,3.19,0,0,1-1.48-.24,2.58,2.58,0,0,1-1.09-.94,5.27,5.27,0,0,1-.7-1.8l-5.07-22.08a3.68,3.68,0,0,1,.07-2.15,5.78,5.78,0,0,1,1.12-1.76,12.47,12.47,0,0,1,3.21-2.28A19.16,19.16,0,0,1,444.61,413Zm4.12,17.55q4.74-1.08,3.44-6.74a7,7,0,0,0-2.17-4.1,4.24,4.24,0,0,0-3.71-.65,5.53,5.53,0,0,0-1.52.56,6.54,6.54,0,0,0-1.08.76L446,430.5a7.53,7.53,0,0,0,1.3.19A5,5,0,0,0,448.73,430.55Z" transform="translate(-62.4 -86.31)"/><path class="cls-2" d="M466,406.36a19.58,19.58,0,0,1,4.5-1.3,10.36,10.36,0,0,1,3.91.1,7.18,7.18,0,0,1,3.15,1.61,8.71,8.71,0,0,1,2.2,3.25l4,9.78a2.92,2.92,0,0,1,.14,2.12,7,7,0,0,1-1,1.86q-2.13,2.87-7.28,5a19.49,19.49,0,0,1-4.35,1.28,10.8,10.8,0,0,1-3.72,0,6.56,6.56,0,0,1-3-1.38,7.15,7.15,0,0,1-2-2.85,6.45,6.45,0,0,1-.12-5.36,10.4,10.4,0,0,1,4.72-4.29l5.46-3-.12-.3a2,2,0,0,0-1.86-1.36,8.14,8.14,0,0,0-3.43.78,16.4,16.4,0,0,0-3.09,1.68,18.13,18.13,0,0,0-2.48,2,3.2,3.2,0,0,1-1.45-.8,4.3,4.3,0,0,1-1.09-1.52,3.1,3.1,0,0,1-.2-2,4.62,4.62,0,0,1,1.21-1.85,14.47,14.47,0,0,1,2.7-1.93A27.76,27.76,0,0,1,466,406.36Zm7.42,17a10,10,0,0,0,1.57-.83,4,4,0,0,0,1.16-1l-1.44-3.49-3,1.56a5.1,5.1,0,0,0-1.79,1.35,1.51,1.51,0,0,0-.25,1.63,1.89,1.89,0,0,0,1.26,1.14A4,4,0,0,0,473.38,423.36Z" transform="translate(-62.4 -86.31)"/><path class="cls-2" d="M495.85,417.87a12.07,12.07,0,0,1-1.14,1A14.8,14.8,0,0,1,493,420a11.67,11.67,0,0,1-1.68.82,3.18,3.18,0,0,1-1.49.2,2.7,2.7,0,0,1-1.34-.56,5,5,0,0,1-1.22-1.5l-7.11-12.24a4.09,4.09,0,0,1-.59-1.82,4.36,4.36,0,0,1,.3-1.78,8.15,8.15,0,0,1,1.06-1.9,19.9,19.9,0,0,1,1.62-1.95,22,22,0,0,1,2-1.84,18.09,18.09,0,0,1,2.26-1.55,6.46,6.46,0,0,1,3.54-1.05,3.15,3.15,0,0,1,2.58,1.81,4.65,4.65,0,0,1,.49,1.22,6.15,6.15,0,0,1,.17,1.23c-.57.33-1.14.7-1.71,1.1s-1.1.83-1.61,1.27-1,.86-1.41,1.28a8.68,8.68,0,0,0-1,1.17Z" transform="translate(-62.4 -86.31)"/><path class="cls-2" d="M497.31,388.55a19.81,19.81,0,0,1,4-2.42,10.51,10.51,0,0,1,3.8-.93,7.25,7.25,0,0,1,3.46.74,8.73,8.73,0,0,1,3,2.56l6.44,8.39a3,3,0,0,1,.68,2,6.91,6.91,0,0,1-.47,2.06q-1.32,3.33-5.73,6.72a19.81,19.81,0,0,1-3.86,2.38,10.71,10.71,0,0,1-3.6,1,6.4,6.4,0,0,1-3.22-.56,6.93,6.93,0,0,1-2.69-2.22,6.36,6.36,0,0,1-1.51-5.14q.47-2.57,3.43-5.38l4.5-4.29-.2-.26a2,2,0,0,0-2.15-.82,8.15,8.15,0,0,0-3.11,1.65,16.23,16.23,0,0,0-2.54,2.42,18.22,18.22,0,0,0-1.86,2.62,3.28,3.28,0,0,1-1.61-.39,4.2,4.2,0,0,1-1.45-1.19,3,3,0,0,1-.72-1.91,4.47,4.47,0,0,1,.68-2.1,14.31,14.31,0,0,1,2.1-2.57A28.65,28.65,0,0,1,497.31,388.55ZM508.91,403a10.19,10.19,0,0,0,1.31-1.21,4.55,4.55,0,0,0,.87-1.23l-2.31-3-2.52,2.29a5.18,5.18,0,0,0-1.37,1.77,1.52,1.52,0,0,0,.18,1.64,1.91,1.91,0,0,0,1.52.78A4,4,0,0,0,508.91,403Z" transform="translate(-62.4 -86.31)"/><path class="cls-2" d="M528,381.75a2,2,0,0,0,1.82.6,4,4,0,0,0,1.86-1.26,10.85,10.85,0,0,0,.91-1.16,8.06,8.06,0,0,0,.66-1.18,5.33,5.33,0,0,1,1.35.24,3.88,3.88,0,0,1,2.58,3.78q-.07,1.75-2.37,4.26a9.67,9.67,0,0,1-5.72,3.44c-1.93.25-4-.59-6-2.5l-14.88-13.66c.16-.32.42-.75.77-1.3a13.11,13.11,0,0,1,1.27-1.63,6,6,0,0,1,2.73-1.88q1.32-.36,3.06,1.23l2.22,2,4.18-4.56a8.79,8.79,0,0,1,1.33.48,5.53,5.53,0,0,1,1.44,1,3.31,3.31,0,0,1,1.26,2.15,2.65,2.65,0,0,1-.78,1.94l-2.91,3.17Z" transform="translate(-62.4 -86.31)"/><path class="cls-2" d="M516.13,353.28a5.54,5.54,0,0,1,2.92-2.25,2.88,2.88,0,0,1,2.47.5,3.2,3.2,0,0,1,1.23,1.77,6.91,6.91,0,0,1,0,2.72l-1.16,6.78a3.85,3.85,0,0,1-2.37,1.22,3,3,0,0,1-2.28-.5,2.49,2.49,0,0,1-.73-.92,2.82,2.82,0,0,1-.25-1.38Zm28.51,20.45c-.16.32-.4.78-.73,1.38a12.69,12.69,0,0,1-1.11,1.73,11.77,11.77,0,0,1-1.25,1.39,3.18,3.18,0,0,1-1.3.76,2.65,2.65,0,0,1-1.45,0,4.87,4.87,0,0,1-1.7-.92l-15.24-11.69c.16-.32.4-.78.73-1.38a11.87,11.87,0,0,1,1.12-1.73,10.93,10.93,0,0,1,1.24-1.39,3.24,3.24,0,0,1,1.3-.76,2.75,2.75,0,0,1,1.45,0,4.87,4.87,0,0,1,1.7.92Z" transform="translate(-62.4 -86.31)"/><path class="cls-6" d="M418.27,451.92s25.77.27,58.59-11.77l4.64,5.9-57.73,14.27Z" transform="translate(-62.4 -86.31)"/><path class="cls-2" d="M677.89,369.67c-.29,0-.61,0-1,0s-.74,0-1.13-.1-.79-.11-1.18-.19a6,6,0,0,1-1.09-.31,1.87,1.87,0,0,1-1.37-1.83V355.55a1.06,1.06,0,0,1,.29-.81,2,2,0,0,1,.78-.47,11.1,11.1,0,0,1,2.28-.46c.8-.07,1.51-.11,2.15-.11a12.59,12.59,0,0,1,3.54.47,7.37,7.37,0,0,1,2.72,1.47,6.41,6.41,0,0,1,1.76,2.48,9.15,9.15,0,0,1,.63,3.55,9.27,9.27,0,0,1-.6,3.49,6.71,6.71,0,0,1-1.71,2.5,7.09,7.09,0,0,1-2.67,1.51A10.87,10.87,0,0,1,677.89,369.67Zm-1.4-3.65a5,5,0,0,0,.67.09,6.75,6.75,0,0,0,.75,0,4.66,4.66,0,0,0,1.57-.25,3.19,3.19,0,0,0,1.22-.78,3.56,3.56,0,0,0,.8-1.36,6.27,6.27,0,0,0,.29-2,4.85,4.85,0,0,0-1-3.39,3.63,3.63,0,0,0-2.8-1.14c-.24,0-.47,0-.71,0l-.74.07Z" transform="translate(-62.4 -86.31)"/><path class="cls-2" d="M677.89,374.67l-1.2,0c-.5,0-1-.06-1.55-.13s-1-.14-1.47-.24a10.63,10.63,0,0,1-2-.58,6.84,6.84,0,0,1-4.52-6.47V355.55a6.08,6.08,0,0,1,1.75-4.35,7,7,0,0,1,2.67-1.64l.1,0a15.54,15.54,0,0,1,3.36-.69c1-.09,1.83-.13,2.62-.13a17.51,17.51,0,0,1,5,.68,12.36,12.36,0,0,1,4.57,2.48,11.63,11.63,0,0,1,3.1,4.34,15.31,15.31,0,0,1,0,10.83,11.66,11.66,0,0,1-3,4.33,12.2,12.2,0,0,1-4.49,2.57A16.25,16.25,0,0,1,677.89,374.67Z" transform="translate(-62.4 -86.31)"/><path class="cls-2" d="M694.64,357.17a3.7,3.7,0,0,0-2.95,1.18,4.85,4.85,0,0,0-1,3.32A4.61,4.61,0,0,0,691.8,365a4,4,0,0,0,3.06,1.18,4.7,4.7,0,0,0,1.74-.28,11.25,11.25,0,0,0,1.36-.62,2.25,2.25,0,0,1,.66.84,2.51,2.51,0,0,1,.24,1.13,2,2,0,0,1-1.13,1.74,6.64,6.64,0,0,1-3.47.71,10.48,10.48,0,0,1-3.15-.47,7.17,7.17,0,0,1-2.57-1.46,7,7,0,0,1-1.74-2.5,9.41,9.41,0,0,1-.64-3.62,9.09,9.09,0,0,1,.61-3.43,7.33,7.33,0,0,1,1.68-2.52,7.12,7.12,0,0,1,2.49-1.55,8.72,8.72,0,0,1,3-.52,7,7,0,0,1,3.56.75,2.2,2.2,0,0,1,1.26,1.92,2,2,0,0,1-.32,1.13,2.67,2.67,0,0,1-.75.75,8.75,8.75,0,0,0-1.39-.73A4.5,4.5,0,0,0,694.64,357.17Z" transform="translate(-62.4 -86.31)"/><path class="cls-2" d="M694.26,374.72a15.42,15.42,0,0,1-4.68-.71,12,12,0,0,1-4.38-2.5,11.77,11.77,0,0,1-3-4.28,14.32,14.32,0,0,1-1-5.56,14.11,14.11,0,0,1,1-5.34,12.4,12.4,0,0,1,2.83-4.21,12,12,0,0,1,4.23-2.64,13.85,13.85,0,0,1,4.78-.83,11.64,11.64,0,0,1,6.11,1.45,7.17,7.17,0,0,1,3.71,6.22,7,7,0,0,1-1.19,3.95,8.23,8.23,0,0,1-1.22,1.4,7.34,7.34,0,0,1,1.72,2.27,7.62,7.62,0,0,1,.74,3.33,7,7,0,0,1-3.48,6A11.3,11.3,0,0,1,694.26,374.72Zm.86-16Z" transform="translate(-62.4 -86.31)"/><path class="cls-2" d="M706.79,357.17a3.7,3.7,0,0,0-2.95,1.18,4.85,4.85,0,0,0-1,3.32A4.61,4.61,0,0,0,704,365,4,4,0,0,0,707,366.2a4.67,4.67,0,0,0,1.74-.28,11.25,11.25,0,0,0,1.36-.62,2.38,2.38,0,0,1,.67.84,2.65,2.65,0,0,1,.23,1.13,2,2,0,0,1-1.13,1.74,6.64,6.64,0,0,1-3.47.71,10.48,10.48,0,0,1-3.15-.47,7.17,7.17,0,0,1-2.57-1.46,7,7,0,0,1-1.74-2.5,9.41,9.41,0,0,1-.64-3.62,8.9,8.9,0,0,1,.62-3.43,7,7,0,0,1,4.16-4.07,8.72,8.72,0,0,1,3-.52,7,7,0,0,1,3.56.75,2.2,2.2,0,0,1,1.26,1.92,2,2,0,0,1-.32,1.13,2.67,2.67,0,0,1-.75.75,8.75,8.75,0,0,0-1.39-.73A4.5,4.5,0,0,0,706.79,357.17Z" transform="translate(-62.4 -86.31)"/><path class="cls-2" d="M706.41,374.72a15.42,15.42,0,0,1-4.68-.71,12,12,0,0,1-4.38-2.5,11.77,11.77,0,0,1-3-4.28,14.32,14.32,0,0,1-1-5.56,14.11,14.11,0,0,1,1-5.34,12.4,12.4,0,0,1,2.83-4.21,12,12,0,0,1,4.23-2.64,13.85,13.85,0,0,1,4.78-.83,11.64,11.64,0,0,1,6.11,1.45,7.17,7.17,0,0,1,3.71,6.22,7,7,0,0,1-1.19,3.95,8.23,8.23,0,0,1-1.22,1.4,7.34,7.34,0,0,1,1.72,2.27,7.62,7.62,0,0,1,.74,3.33,7,7,0,0,1-3.48,6A11.3,11.3,0,0,1,706.41,374.72Zm.86-16Z" transform="translate(-62.4 -86.31)"/><path class="cls-1" d="M678.12,369l-1,0c-.36,0-.74-.05-1.14-.1s-.78-.11-1.17-.19a6,6,0,0,1-1.09-.31,1.86,1.86,0,0,1-1.37-1.82V354.87a1.09,1.09,0,0,1,.28-.81,2.09,2.09,0,0,1,.79-.46,10.48,10.48,0,0,1,2.28-.47c.8-.07,1.51-.11,2.15-.11a12.1,12.1,0,0,1,3.53.48,7.18,7.18,0,0,1,2.73,1.46,6.52,6.52,0,0,1,1.76,2.49,9.12,9.12,0,0,1,.63,3.55,9.25,9.25,0,0,1-.6,3.48,6.54,6.54,0,0,1-1.72,2.5,7.13,7.13,0,0,1-2.66,1.52A11.16,11.16,0,0,1,678.12,369Zm-1.4-3.65c.18,0,.41.06.67.08a6.75,6.75,0,0,0,.75,0,4.56,4.56,0,0,0,1.56-.25,3,3,0,0,0,1.23-.77,3.6,3.6,0,0,0,.8-1.37,6.19,6.19,0,0,0,.29-2,4.85,4.85,0,0,0-1-3.39,3.66,3.66,0,0,0-2.8-1.13l-.72,0c-.24,0-.48,0-.73.08Z" transform="translate(-62.4 -86.31)"/><path class="cls-1" d="M694.87,356.5a3.7,3.7,0,0,0-3,1.17,4.88,4.88,0,0,0-1,3.33,4.63,4.63,0,0,0,1.14,3.35,4.08,4.08,0,0,0,3.06,1.17,5,5,0,0,0,1.74-.27,12.05,12.05,0,0,0,1.36-.63,2.44,2.44,0,0,1,.66.84,2.52,2.52,0,0,1,.24,1.14,2,2,0,0,1-1.14,1.73,6.56,6.56,0,0,1-3.46.72,10.13,10.13,0,0,1-3.15-.48,7,7,0,0,1-2.57-1.46,6.77,6.77,0,0,1-1.74-2.5,10.25,10.25,0,0,1,0-7.05,7.29,7.29,0,0,1,1.68-2.51,7,7,0,0,1,2.49-1.55,8.73,8.73,0,0,1,3.05-.53,7,7,0,0,1,3.56.75,2.21,2.21,0,0,1,1.26,1.93,2,2,0,0,1-.32,1.12,2.67,2.67,0,0,1-.75.75,8.7,8.7,0,0,0-1.39-.72A4.5,4.5,0,0,0,694.87,356.5Z" transform="translate(-62.4 -86.31)"/><path class="cls-1" d="M707,356.5a3.7,3.7,0,0,0-2.95,1.17,4.88,4.88,0,0,0-1,3.33,4.63,4.63,0,0,0,1.14,3.35,4.08,4.08,0,0,0,3.06,1.17,4.93,4.93,0,0,0,1.74-.27,12.05,12.05,0,0,0,1.36-.63,2.44,2.44,0,0,1,.66.84,2.52,2.52,0,0,1,.24,1.14,2,2,0,0,1-1.14,1.73,6.56,6.56,0,0,1-3.46.72,10.18,10.18,0,0,1-3.15-.48,7,7,0,0,1-2.57-1.46,6.77,6.77,0,0,1-1.74-2.5,10.25,10.25,0,0,1,0-7.05,7.29,7.29,0,0,1,1.68-2.51,7,7,0,0,1,2.49-1.55,8.73,8.73,0,0,1,3-.53,7,7,0,0,1,3.56.75,2.21,2.21,0,0,1,1.26,1.93,2,2,0,0,1-.32,1.12,2.67,2.67,0,0,1-.75.75,8.7,8.7,0,0,0-1.39-.72A4.5,4.5,0,0,0,707,356.5Z" transform="translate(-62.4 -86.31)"/></svg>